<svg width="167" height="148" viewBox="0 0 167 148" fill="none" xmlns="http://www.w3.org/2000/svg">
<path d="M147.5 82.5C147.5 115.637 120.637 142.5 87.5 142.5C54.3629 142.5 27.5 115.637 27.5 82.5C27.5 49.3629 54.3629 22.5 87.5 22.5C120.637 22.5 147.5 49.3629 147.5 82.5Z" fill="white" stroke="#363638"/>
<path d="M93.3631 141.071C89.7231 138 87.5121 133.148 88.0919 128.424C88.6718 123.701 92.2631 119.359 96.9215 118.356C101.58 117.353 106.89 120.129 108.305 124.673C109.084 115.912 109.981 106.784 114.646 99.3233C118.869 92.5677 126.185 87.7338 134.113 86.8691C142.041 86.0043 150.388 89.2705 155.333 95.5192C160.277 101.768 161.488 110.852 158.025 118.027C155.474 123.312 150.774 127.245 145.849 130.444C129.937 140.697 110.852 144.866 92.106 142.185" fill="#EBEBEB"/>
<path d="M147.493 89.452C140.951 94.7728 134.95 100.724 129.576 107.219C121.165 117.348 114.359 128.706 109.395 140.895C109.032 141.784 110.478 142.171 110.837 141.292C118.959 121.482 131.926 104.022 148.55 90.5079C149.297 89.9008 148.233 88.8499 147.493 89.452Z" fill="white"/>
<path d="M79.2443 114C78.1991 114 77.1683 113.757 76.2335 113.289C75.2987 112.822 74.4856 112.143 73.8587 111.306L57.3464 89.2893C56.8159 88.582 56.43 87.7771 56.2106 86.9206C55.9912 86.0641 55.9426 85.1728 56.0677 84.2976C56.1928 83.4223 56.489 82.5803 56.9395 81.8195C57.3899 81.0588 57.9859 80.3942 58.6932 79.8637C59.4005 79.3333 60.2054 78.9473 61.0618 78.7279C61.9183 78.5086 62.8096 78.46 63.6848 78.5851C64.5601 78.7101 65.4021 79.0064 66.1629 79.4568C66.9236 79.9073 67.5882 80.5032 68.1186 81.2106L78.9216 95.6136L106.667 53.9947C107.659 52.5102 109.198 51.4799 110.949 51.1304C112.699 50.7809 114.517 51.1407 116.002 52.1308C117.487 53.1209 118.518 54.6603 118.869 56.4104C119.219 58.1606 118.861 59.9784 117.872 61.4641L84.8468 111.002C84.2494 111.898 83.4459 112.637 82.5037 113.159C81.5615 113.68 80.508 113.968 79.4317 113.998C79.3692 113.999 79.3067 114 79.2443 114Z" fill="#875CF8"/>
<path d="M95.1356 113.775C94.7798 114.205 94.3009 114.516 93.7638 114.663C93.2268 114.811 92.6575 114.79 92.1332 114.601C91.6088 114.413 91.1547 114.067 90.8324 113.61C90.5101 113.154 90.3352 112.608 90.3313 112.048C90.1763 111.813 90.065 111.644 89.9099 111.409C88.552 110.888 87.0704 110.788 85.6551 111.119C84.2397 111.451 82.9552 112.2 81.966 113.271C80.9769 114.342 80.3282 115.685 80.1032 117.129C79.8782 118.572 80.0871 120.051 80.703 121.374C84.102 128.87 87.0592 137.249 94.5867 141.331C63.937 131.853 40.4135 103.956 35.7095 72.1264C37.1997 65.8865 36.2091 58.8135 32.3095 53.6336C31.1385 56.3244 27.1519 57.3632 26.3998 53.8434C26.1842 52.4189 25.9809 50.9938 25.7652 49.5693C10.4152 49.7967 14.9783 71.0173 33.9334 72.6547C34.8901 78.6806 36.4706 84.5893 38.6491 90.2846C34.8144 85.9152 30.003 82.5237 24.6105 80.389C19.4716 78.5247 13.6889 78.5591 8.13833 78.1695C1.38129 77.688 -2.62768 85.771 1.9771 90.7611C5.52857 88.7445 10.0038 92.1621 7.58391 95.9747C17.6404 103.614 31.6872 105.335 43.3623 100.672C49.1998 111.698 57.3072 121.346 67.1442 128.973C55.1094 120.653 42.0519 129.815 30.4893 133.987C29.6965 134.2 28.9825 134.641 28.4344 135.255C27.8864 135.869 27.5279 136.631 27.4029 137.446C27.2779 138.262 27.3916 139.097 27.7302 139.849C28.0688 140.6 28.6177 141.237 29.3099 141.68C30.7695 140.98 32.2946 140.427 33.8629 140.029C34.6027 139.847 35.3802 139.9 36.089 140.18C36.7977 140.46 37.403 140.954 37.8219 141.593C38.2407 142.233 38.4526 142.987 38.4285 143.752C38.4044 144.518 38.1455 145.257 37.6873 145.869C51.3811 150.977 67.6318 146.625 77.3823 135.793C82.8068 138.865 88.5341 141.363 94.4721 143.245L109 127.22C108.875 127 108.739 126.781 108.609 126.567C107.357 128.135 105.919 129.544 104.326 130.76C103.263 122.6 103.657 117.404 95.1362 113.774L95.1356 113.775Z" fill="#EBEBEB"/>
<path d="M136.814 3.62931C136.687 4.79656 137.936 5.8925 139.604 6.07717C141.273 6.26184 142.729 5.46532 142.857 4.29807C142.984 3.13082 141.735 2.03486 140.067 1.85019C138.398 1.66552 136.942 2.46206 136.814 3.62931Z" fill="#F7F7F7"/>
<path d="M117.118 6.26162C116.991 7.42886 118.24 8.5248 119.908 8.70947C121.577 8.89414 123.033 8.09762 123.16 6.93037C123.288 5.76312 122.039 4.66719 120.37 4.48252C118.702 4.29785 117.246 5.09437 117.118 6.26162Z" fill="#875CF8"/>
<path d="M142.787 19.5317C142.659 20.6989 143.909 21.7948 145.577 21.9795C147.246 22.1642 148.702 21.3677 148.829 20.2004C148.957 19.0332 147.708 17.9372 146.039 17.7525C144.371 17.5679 142.915 18.3644 142.787 19.5317Z" fill="#875CF8"/>
<path d="M160.202 28.5872C160.714 29.6429 162.352 29.8992 163.861 29.1597C165.37 28.4203 166.178 26.9651 165.667 25.9095C165.155 24.8538 163.517 24.5975 162.008 25.3369C160.499 26.0764 159.691 27.5316 160.202 28.5872Z" fill="#875CF8"/>
<path d="M151.605 25.8208C151.634 26.8872 152.255 27.7353 152.993 27.7151C153.731 27.6948 154.305 26.8138 154.276 25.7474C154.247 24.6809 153.626 23.8328 152.888 23.8531C152.15 23.8733 151.576 24.7543 151.605 25.8208Z" fill="#F7F7F7"/>
<path d="M154.946 37.9956C154.975 39.062 155.596 39.9101 156.334 39.8899C157.072 39.8696 157.646 38.9886 157.617 37.9222C157.588 36.8557 156.966 36.0076 156.229 36.0279C155.491 36.0482 154.916 36.9291 154.946 37.9956Z" fill="#875CF8"/>
<path d="M131.544 17.1826C131.573 18.249 132.195 19.0971 132.933 19.0769C133.67 19.0566 134.245 18.1757 134.216 17.1092C134.187 16.0428 133.565 15.1946 132.827 15.2149C132.09 15.2352 131.515 16.1161 131.544 17.1826Z" fill="#F7F7F7"/>
<path d="M140.929 12.0522C140.958 13.1186 141.58 13.9667 142.317 13.9465C143.055 13.9262 143.63 13.0453 143.6 11.9788C143.571 10.9124 142.95 10.0643 142.212 10.0845C141.474 10.1048 140.9 10.9857 140.929 12.0522Z" fill="#875CF8"/>
<path d="M127.324 3.65472C127.353 4.72117 127.975 5.56927 128.713 5.54901C129.451 5.52876 130.025 4.6478 129.996 3.58135C129.967 2.5149 129.345 1.66681 128.608 1.68707C127.87 1.70733 127.295 2.58827 127.324 3.65472Z" fill="#875CF8"/>
<path d="M15.183 19.7998C16.2641 20.2655 17.6795 19.3883 18.3445 17.8405C19.0095 16.2928 18.6723 14.6605 17.5912 14.1948C16.5102 13.7291 15.0947 14.6063 14.4297 16.154C13.7647 17.7018 14.102 19.3341 15.183 19.7998Z" fill="#F7F7F7"/>
<path d="M11.9457 39.4868C13.0268 39.9525 14.4422 39.0753 15.1072 37.5275C15.7722 35.9798 15.4349 34.3475 14.3539 33.8818C13.2728 33.4161 11.8574 34.2933 11.1924 35.841C10.5274 37.3888 10.8647 39.021 11.9457 39.4868Z" fill="#875CF8"/>
<path d="M32.1664 18.7397C33.2475 19.2054 34.6629 18.3282 35.3279 16.7805C35.9929 15.2327 35.6556 13.6005 34.5746 13.1347C33.4935 12.669 32.0781 13.5462 31.4131 15.094C30.7481 16.6417 31.0854 18.274 32.1664 18.7397Z" fill="#875CF8"/>
<path d="M11.0539 48.2799C11.2093 47.1176 9.97701 45.9896 8.30152 45.7602C6.62603 45.5309 5.14181 46.2871 4.98642 47.4493C4.83104 48.6116 6.06334 49.7396 7.73883 49.969C9.41432 50.1983 10.8985 49.4421 11.0539 48.2799Z" fill="#875CF8"/>
<path d="M40.7755 12.1234C41.8058 12.409 42.8002 12.0615 42.9966 11.3472C43.193 10.6329 42.5169 9.82232 41.4866 9.5367C40.4563 9.25107 39.4619 9.59858 39.2655 10.3129C39.0691 11.0271 39.7452 11.8377 40.7755 12.1234Z" fill="#F7F7F7"/>
<path d="M53.4161 12.4954C54.4464 12.781 55.4408 12.4335 55.6372 11.7193C55.8336 11.005 55.1576 10.1944 54.1273 9.90877C53.097 9.62314 52.1025 9.97064 51.9062 10.6849C51.7098 11.3992 52.3858 12.2098 53.4161 12.4954Z" fill="#875CF8"/>
<path d="M26.629 28.8455C27.6593 29.1311 28.6537 28.7836 28.8501 28.0693C29.0465 27.3551 28.3705 26.5445 27.3401 26.2589C26.3098 25.9732 25.3154 26.3207 25.119 27.035C24.9227 27.7493 25.5987 28.5599 26.629 28.8455Z" fill="#F7F7F7"/>
<path d="M24.4601 18.326C25.4904 18.6116 26.4848 18.2641 26.6812 17.5498C26.8775 16.8355 26.2015 16.025 25.1712 15.7393C24.1409 15.4537 23.1465 15.8012 22.9501 16.5155C22.7537 17.2298 23.4298 18.0404 24.4601 18.326Z" fill="#875CF8"/>
<path d="M7.16168 56.249C6.21805 56.7449 5.73549 57.679 6.08385 58.3352C6.43222 58.9915 7.4796 59.1214 8.42323 58.6255C9.36687 58.1296 9.84943 57.1955 9.50106 56.5393C9.1527 55.883 8.10532 55.7531 7.16168 56.249Z" fill="#875CF8"/>
<path d="M12.4337 28.9192C13.464 29.2049 14.4584 28.8574 14.6548 28.1431C14.8512 27.4288 14.1751 26.6182 13.1448 26.3326C12.1145 26.047 11.1201 26.3945 10.9237 27.1087C10.7274 27.823 11.4034 28.6336 12.4337 28.9192Z" fill="#875CF8"/>
</svg>
