<svg width="22" height="17" viewBox="0 0 22 17" fill="none" xmlns="http://www.w3.org/2000/svg">
<path d="M13.0732 8.08367C13.8745 8.09263 14.6604 7.86321 15.331 7.42455C16.0016 6.98589 16.5267 6.3578 16.8396 5.62006C17.1524 4.88232 17.239 4.06824 17.0881 3.28122C16.9373 2.4942 16.556 1.76978 15.9925 1.19997C15.4291 0.630165 14.709 0.240695 13.9237 0.0810384C13.1385 -0.0786183 12.3234 -0.00125618 11.5822 0.303298C10.841 0.607852 10.2071 1.12585 9.76091 1.79149C9.31475 2.45713 9.07651 3.24037 9.07646 4.04171C9.07331 4.56959 9.17421 5.09292 9.3734 5.58179C9.57258 6.07066 9.86615 6.51549 10.2373 6.89086C10.6085 7.26622 11.05 7.56477 11.5366 7.76944C12.0232 7.97411 12.5454 8.08089 13.0732 8.08367ZM13.0732 10.1047C10.4052 10.1047 5.081 11.4586 5.081 14.1466V15.1578C5.07994 15.4242 5.18449 15.6802 5.37176 15.8697C5.55904 16.0592 5.81377 16.1668 6.0802 16.1689H20.0663C20.3327 16.1668 20.5874 16.0592 20.7747 15.8697C20.962 15.6802 21.0665 15.4242 21.0655 15.1578V14.1466C21.0655 11.4599 15.74 10.106 13.0732 10.106V10.1047Z" fill="#875CF8"/>
<path d="M4.24583 3.24288C4.3057 3.05862 4.56639 3.05862 4.62626 3.24288L5.28609 5.27364C5.31286 5.35604 5.38966 5.41184 5.4763 5.41184H7.61157C7.80531 5.41184 7.88587 5.65976 7.72912 5.77364L6.00166 7.02872C5.93156 7.07965 5.90223 7.16992 5.929 7.25232L6.58884 9.28308C6.64871 9.46734 6.43781 9.62057 6.28107 9.50669L4.5536 8.25161C4.4835 8.20068 4.38858 8.20068 4.31849 8.25161L2.59102 9.50669C2.43428 9.62057 2.22338 9.46734 2.28325 9.28308L2.94309 7.25232C2.96986 7.16992 2.94053 7.07965 2.87043 7.02872L1.14297 5.77364C0.986223 5.65976 1.06678 5.41184 1.26052 5.41184H3.39579C3.48243 5.41184 3.55923 5.35604 3.586 5.27364L4.24583 3.24288Z" fill="#875CF8"/>
</svg>
