<svg width="16" height="16" viewBox="0 0 16 16" fill="none" xmlns="http://www.w3.org/2000/svg">
<path d="M3.33333 14.6667C2.96667 14.6667 2.65267 14.536 2.39133 14.2747C2.13 14.0133 1.99956 13.6996 2 13.3333V4.00001C2 3.63335 2.13067 3.31935 2.392 3.05801C2.65333 2.79668 2.96711 2.66623 3.33333 2.66668H4V2.00001C4 1.81112 4.064 1.65268 4.192 1.52468C4.32 1.39668 4.47822 1.3329 4.66667 1.33335C4.85556 1.33335 5.014 1.39735 5.142 1.52535C5.27 1.65335 5.33378 1.81157 5.33333 2.00001V2.66668H10.6667V2.00001C10.6667 1.81112 10.7307 1.65268 10.8587 1.52468C10.9867 1.39668 11.1449 1.3329 11.3333 1.33335C11.5222 1.33335 11.6807 1.39735 11.8087 1.52535C11.9367 1.65335 12.0004 1.81157 12 2.00001V2.66668H12.6667C13.0333 2.66668 13.3473 2.79735 13.6087 3.05868C13.87 3.32001 14.0004 3.63379 14 4.00001V8.00001H12.6667V6.66668H3.33333V13.3333H8V14.6667H3.33333ZM14.75 11.3333L13.3333 9.91668L13.8167 9.43335C13.9389 9.31112 14.0944 9.25001 14.2833 9.25001C14.4722 9.25001 14.6278 9.31112 14.75 9.43335L15.2333 9.91668C15.3556 10.0389 15.4167 10.1945 15.4167 10.3833C15.4167 10.5722 15.3556 10.7278 15.2333 10.85L14.75 11.3333ZM9.33333 15V14.2C9.33333 14.1111 9.35 14.0249 9.38333 13.9413C9.41667 13.8578 9.46667 13.7829 9.53333 13.7167L12.8667 10.3833L14.2833 11.8L10.95 15.1333C10.8833 15.2 10.8082 15.25 10.7247 15.2833C10.6411 15.3167 10.5551 15.3333 10.4667 15.3333H9.66667C9.57778 15.3333 9.5 15.3 9.43333 15.2333C9.36667 15.1667 9.33333 15.0889 9.33333 15Z" fill="#875CF8"/>
</svg>
