<svg width="30" height="39" viewBox="0 0 30 39" fill="none" xmlns="http://www.w3.org/2000/svg">
<path d="M0.0429688 20.0762L2.48832 19.0001L4.19562 21.6114H0.0429688V20.0762Z" fill="url(#paint0_linear_3826_17320)"/>
<path d="M29.3881 39H3.10104C2.93879 39 2.78318 38.9357 2.66845 38.8214C2.55371 38.707 2.48926 38.5519 2.48926 38.3902V0.60981C2.48926 0.448076 2.55371 0.292966 2.66845 0.178603C2.78318 0.0642399 2.93879 -8.58307e-06 3.10104 -8.58307e-06L23.3219 -8.58307e-06L29.9999 6.65658V38.3884C30.0001 38.4686 29.9845 38.5481 29.9538 38.6223C29.9232 38.6965 29.8782 38.7639 29.8213 38.8208C29.7645 38.8776 29.697 38.9226 29.6226 38.9534C29.5483 38.9842 29.4686 39 29.3881 39V39Z" fill="url(#paint1_linear_3826_17320)"/>
<path d="M23.3203 -8.58307e-06V6.04676C23.3203 6.2085 23.3848 6.36361 23.4995 6.47797C23.6142 6.59233 23.7698 6.65658 23.9321 6.65658H29.9983L27.0035 3.06149L23.3203 -8.58307e-06Z" fill="url(#paint2_linear_3826_17320)"/>
<path d="M23.8989 31.9926H1.12426C0.982261 31.9926 0.841655 31.9647 0.710467 31.9105C0.579279 31.8564 0.460078 31.777 0.359671 31.6769C0.259264 31.5768 0.179617 31.458 0.125277 31.3272C0.0709373 31.1965 0.0429687 31.0563 0.0429688 30.9148V21.1541H23.8989C24.1856 21.1546 24.4603 21.2683 24.663 21.4703C24.8657 21.6724 24.9797 21.9462 24.9802 22.2319V30.9183C24.9793 31.2036 24.8649 31.4768 24.6623 31.6782C24.4596 31.8795 24.1851 31.9926 23.8989 31.9926V31.9926Z" fill="url(#paint3_linear_3826_17320)"/>
<path d="M2.48919 19.0001H1.12513C0.979564 18.9942 0.834303 19.0177 0.698072 19.0692C0.56184 19.1207 0.437449 19.1991 0.332364 19.2996C0.227279 19.4002 0.14367 19.5209 0.0865553 19.6545C0.0294411 19.7881 0 19.9318 0 20.0771C0 20.2223 0.0294411 20.366 0.0865553 20.4996C0.14367 20.6332 0.227279 20.7539 0.332364 20.8545C0.437449 20.9551 0.56184 21.0335 0.698072 21.0849C0.834303 21.1364 0.979564 21.1599 1.12513 21.154H2.48919V19.0001Z" fill="url(#paint4_linear_3826_17320)"/>
<path d="M4.93502 28.6615V24.4903C4.93502 24.4204 4.94882 24.3513 4.97564 24.2867C5.00245 24.2222 5.04175 24.1636 5.09129 24.1142C5.14083 24.0648 5.19965 24.0257 5.26438 23.9989C5.32911 23.9722 5.39849 23.9584 5.46855 23.9584C6.27976 23.9272 7.09217 23.9533 7.89968 24.0365C8.22766 24.1296 8.51318 24.333 8.7077 24.6123C8.90223 24.8915 8.99376 25.2292 8.96674 25.5681C8.99078 25.9265 8.88605 26.2817 8.67131 26.5701C8.45657 26.8586 8.14584 27.0614 7.79475 27.1423C7.25723 27.2062 6.71574 27.2311 6.17459 27.2167C6.12743 27.2167 6.08219 27.2354 6.04884 27.2686C6.01549 27.3019 5.99675 27.347 5.99675 27.394V28.6704C5.99675 28.8114 5.94054 28.9467 5.84048 29.0464C5.74043 29.1461 5.60472 29.2022 5.46322 29.2022C5.32172 29.2022 5.18601 29.1461 5.08596 29.0464C4.9859 28.9467 4.92969 28.8114 4.92969 28.6704L4.93502 28.6615ZM6.00209 25.0115V26.1566C6.00209 26.2036 6.02082 26.2487 6.05418 26.282C6.08753 26.3152 6.13276 26.3339 6.17993 26.3339C6.59669 26.3626 7.01543 26.3352 7.42483 26.2524C7.57311 26.1978 7.69896 26.0957 7.78251 25.9619C7.86606 25.8282 7.90256 25.6706 7.88625 25.5139C7.86994 25.3572 7.80174 25.2104 7.69243 25.0966C7.58312 24.9828 7.43891 24.9086 7.28256 24.8856C6.91532 24.8542 6.54666 24.8424 6.17815 24.8501C6.13098 24.8501 6.08575 24.8688 6.0524 24.9021C6.01904 24.9353 6.00031 24.9804 6.00031 25.0274L6.00209 25.0115Z" fill="white"/>
<path d="M9.82568 24.4849C9.82568 24.3439 9.88189 24.2086 9.98195 24.1089C10.082 24.0091 10.2177 23.9531 10.3592 23.9531C11.1626 23.9051 11.9688 23.9384 12.7654 24.0524C13.0736 24.1518 13.3525 24.3249 13.5779 24.5567C13.8033 24.7885 13.9683 25.0718 14.0584 25.3819C14.1849 25.7832 14.245 26.2023 14.2362 26.6228C14.244 27.0002 14.1893 27.3764 14.0744 27.7361C13.99 28.0524 13.8255 28.3418 13.5966 28.5765C13.3677 28.8112 13.0821 28.9833 12.7672 29.0763C11.9716 29.1888 11.1672 29.2262 10.3645 29.188C10.2945 29.188 10.2251 29.1742 10.1604 29.1475C10.0956 29.1207 10.0368 29.0816 9.98729 29.0322C9.93774 28.9828 9.89845 28.9242 9.87163 28.8597C9.84482 28.7951 9.83102 28.726 9.83102 28.6561L9.82568 24.4849ZM10.8927 25.0167V28.1438C10.8927 28.1671 10.8973 28.1901 10.9063 28.2117C10.9152 28.2332 10.9283 28.2527 10.9448 28.2692C10.9613 28.2856 10.981 28.2987 11.0025 28.3076C11.0241 28.3165 11.0472 28.3211 11.0706 28.3211C11.4921 28.3444 11.9149 28.3278 12.3333 28.2714C12.5107 28.2355 12.6733 28.1473 12.8001 28.0184C12.9269 27.8895 13.0121 27.7258 13.0447 27.5482C13.1255 27.2351 13.1615 26.9122 13.1514 26.5891C13.1631 26.2747 13.1271 25.9604 13.0447 25.6567C12.9982 25.4685 12.8987 25.2975 12.7578 25.164C12.6169 25.0305 12.4406 24.94 12.2497 24.9033C11.8594 24.8606 11.4667 24.844 11.0741 24.8536C11.0285 24.8559 10.9856 24.8756 10.9541 24.9086C10.9227 24.9416 10.9051 24.9854 10.9052 25.0309L10.8927 25.0167Z" fill="white"/>
<path d="M15.1323 28.6614V24.4848C15.1323 24.3438 15.1885 24.2085 15.2885 24.1088C15.3886 24.009 15.5243 23.953 15.6658 23.953H18.2908C18.4087 23.953 18.5218 23.9997 18.6051 24.0828C18.6885 24.1659 18.7354 24.2787 18.7354 24.3962C18.7354 24.5137 18.6885 24.6265 18.6051 24.7096C18.5218 24.7927 18.4087 24.8394 18.2908 24.8394H16.3665C16.3193 24.8394 16.2741 24.8581 16.2407 24.8913C16.2074 24.9245 16.1886 24.9696 16.1886 25.0166V25.9154C16.1886 25.9624 16.2074 26.0075 16.2407 26.0408C16.2741 26.074 16.3193 26.0927 16.3665 26.0927H17.944C18.0619 26.0927 18.175 26.1394 18.2583 26.2225C18.3417 26.3056 18.3886 26.4183 18.3886 26.5359C18.3886 26.6534 18.3417 26.7661 18.2583 26.8493C18.175 26.9324 18.0619 26.9791 17.944 26.9791H16.3665C16.3193 26.9791 16.2741 26.9977 16.2407 27.031C16.2074 27.0642 16.1886 27.1093 16.1886 27.1563V28.6791C16.1886 28.8202 16.1324 28.9554 16.0324 29.0552C15.9323 29.1549 15.7966 29.2109 15.6551 29.2109C15.5136 29.2109 15.3779 29.1549 15.2778 29.0552C15.1778 28.9554 15.1216 28.8202 15.1216 28.6791L15.1323 28.6614Z" fill="white"/>
<defs>
<linearGradient id="paint0_linear_3826_17320" x1="2.11929" y1="18.5562" x2="2.11929" y2="72.9428" gradientUnits="userSpaceOnUse">
<stop stop-color="#FF5252"/>
<stop offset="1" stop-color="#D50000"/>
</linearGradient>
<linearGradient id="paint1_linear_3826_17320" x1="2.48926" y1="-3.31501" x2="50.9815" y2="81.8933" gradientUnits="userSpaceOnUse">
<stop stop-color="#F3F7FF"/>
<stop offset="0.99" stop-color="#B5D1FF"/>
</linearGradient>
<linearGradient id="paint2_linear_3826_17320" x1="23.3203" y1="-14.2784" x2="29.9658" y2="-2.41806" gradientUnits="userSpaceOnUse">
<stop stop-color="#F3F7FF"/>
<stop offset="0.99" stop-color="#B5D1FF"/>
</linearGradient>
<linearGradient id="paint3_linear_3826_17320" x1="0.0429684" y1="19.821" x2="5.18397" y2="54.6914" gradientUnits="userSpaceOnUse">
<stop stop-color="#FF5252"/>
<stop offset="1" stop-color="#D50000"/>
</linearGradient>
<linearGradient id="paint4_linear_3826_17320" x1="1.93407e-07" y1="9.93911" x2="1.87448" y2="26.6796" gradientUnits="userSpaceOnUse">
<stop stop-color="#FF5252"/>
<stop offset="1" stop-color="#D50000"/>
</linearGradient>
</defs>
</svg>
