<svg width="583" height="453" viewBox="0 0 583 453" fill="none" xmlns="http://www.w3.org/2000/svg">
<path d="M120.696 285.857C120.747 294.08 120.848 302.357 120.896 310.576C120.896 312.606 120.947 314.637 120.947 316.616C120.947 317.986 121.247 319.716 120.693 321.032C119.83 323.265 116.937 322.656 115.871 324.532C115.762 324.183 115.678 323.827 115.617 323.466C119.322 325.293 120.287 329.405 120.591 333.212C120.845 336.867 120.997 342.754 116.226 343.465C116.268 343.005 116.335 342.548 116.426 342.095C123.634 345.395 120.74 358.287 117.695 363.464C115.321 367.19 112.295 370.457 108.761 373.108C106.832 374.682 104.904 376.154 102.924 377.676C101.756 378.59 100.589 379.453 99.472 380.366C98.863 380.823 96.2719 382.244 96.1719 383.107C95.9984 382.86 95.8122 382.623 95.614 382.396H95.514C95.4054 382.745 95.3205 383.101 95.26 383.462C95.209 383.411 95.209 383.362 95.16 383.31C94.754 382.447 96.0229 381.686 96.4799 382.549C96.5309 382.6 96.5309 382.649 96.5799 382.701C96.6783 382.878 96.7069 383.086 96.6599 383.283C96.6128 383.481 96.4938 383.653 96.326 383.767C96.1872 383.902 96.0092 383.989 95.8177 384.016C95.6262 384.044 95.4309 384.01 95.26 383.919C94.96 383.819 94.651 383.513 94.702 383.208C94.902 381.635 96.478 380.924 97.697 380.008C99.473 378.587 101.297 377.216 103.077 375.795C106.496 373.303 109.72 370.554 112.721 367.572C116.01 364.308 118.164 360.073 118.863 355.492C119.421 351.634 119.929 345.442 115.663 343.462C115.105 343.208 115.206 342.142 115.863 342.091C119.924 341.482 119.363 335.691 119.063 332.599C118.763 329.554 117.896 326.356 114.901 324.884C114.731 324.772 114.61 324.599 114.563 324.401C114.516 324.203 114.546 323.995 114.647 323.818C115.713 321.991 118.302 322.346 119.266 320.718C120.027 319.5 119.52 316.657 119.466 315.185C119.466 313.155 119.415 311.124 119.415 309.145C119.364 301.43 119.315 293.664 119.215 285.945C119.202 285.845 119.21 285.744 119.238 285.647C119.266 285.55 119.313 285.46 119.377 285.382C119.441 285.304 119.52 285.24 119.61 285.194C119.699 285.148 119.797 285.121 119.898 285.114C119.998 285.107 120.099 285.121 120.194 285.154C120.289 285.188 120.376 285.241 120.45 285.309C120.524 285.378 120.583 285.46 120.624 285.553C120.665 285.645 120.686 285.744 120.687 285.845L120.696 285.857Z" fill="#E8E8E8"/>
<path d="M119.883 286.262C112.777 286.617 107.803 292.048 103.539 297.124C101.509 299.56 99.3771 301.845 97.2961 304.124C95.1641 306.408 92.3732 311.024 96.2302 313.26C96.3709 313.349 96.4789 313.481 96.5383 313.636C96.5976 313.792 96.605 313.963 96.5593 314.123C96.5135 314.283 96.4173 314.423 96.2847 314.524C96.1522 314.625 95.9906 314.68 95.8242 314.681C89.9362 314.833 87.3481 321.99 85.5241 326.508C83.3482 331.977 81.617 337.613 80.3471 343.36C77.7801 355.127 77.231 367.244 78.7231 379.195C78.8231 380.159 77.3021 380.159 77.2001 379.195C75.6012 365.903 76.4615 352.431 79.7381 339.451C81.225 333.281 83.3338 327.278 86.0322 321.533C87.9612 317.472 90.9551 313.26 95.8321 313.158C95.6801 313.615 95.5781 314.122 95.4261 314.579C88.0151 310.315 97.2031 302.194 100.197 298.692C105.527 292.499 110.907 285.139 119.84 284.683C120.042 284.687 120.234 284.768 120.378 284.91C120.522 285.052 120.605 285.244 120.612 285.445C120.618 285.647 120.547 285.844 120.413 285.994C120.279 286.145 120.092 286.239 119.891 286.256L119.883 286.262Z" fill="#E8E8E8"/>
<path d="M94.4041 304.536C90.8659 291.945 85.8556 279.814 79.4771 268.396C79.8263 268.505 80.1825 268.589 80.5431 268.65C79.1731 269.462 77.7511 270.274 76.3811 271.086C76.232 271.163 76.0622 271.191 75.8963 271.165C75.7304 271.139 75.577 271.061 75.4583 270.943C75.3396 270.824 75.2617 270.671 75.236 270.505C75.2102 270.339 75.238 270.169 75.3151 270.02C78.9701 262.711 68.0061 258.041 64.3001 253.676C64.6015 253.734 64.9072 253.768 65.2141 253.776C64.5031 254.182 63.7421 254.588 63.0321 254.994C62.8548 255.092 62.647 255.121 62.4497 255.074C62.2525 255.027 62.08 254.908 61.9661 254.74C57.9051 247.84 50.7491 243.979 43.8461 240.426C44.2011 240.126 44.607 239.868 44.963 239.563C47.145 246.72 43.6941 254.537 43.0341 261.693C42.6707 265.574 42.6373 269.48 42.9341 273.367C43.0861 275.296 42.9341 278.189 43.6951 279.915C43.6951 281.184 44.4061 281.894 45.8781 282.148C46.3351 282.199 46.741 282.248 47.198 282.3C48.213 282.4 49.2791 282.5 50.2981 282.6C50.7041 282.651 51.1101 282.9 51.0591 283.361C51.0586 283.759 50.9554 284.15 50.7598 284.497C50.5642 284.844 50.2825 285.135 49.942 285.341C48.978 286.153 48.2161 286.255 47.7591 287.676C47.5494 288.453 47.4636 289.258 47.505 290.062C47.6326 294.22 48.0911 298.362 48.8761 302.447C49.5997 306.399 50.5831 310.299 51.8201 314.121C52.8861 317.321 54.307 322.09 58.266 322.598C58.4005 322.603 58.5316 322.642 58.6466 322.712C58.7617 322.781 58.8568 322.879 58.923 322.997C58.9892 323.114 59.0243 323.246 59.0248 323.38C59.0253 323.515 58.9914 323.647 58.9261 323.765C55.9821 328.283 60.347 333.765 62.479 337.673C64.814 341.835 66.9461 346.099 68.9251 350.413C72.8656 359.004 76.1571 367.878 78.7721 376.96C78.8177 377.152 78.7867 377.355 78.6859 377.525C78.5852 377.695 78.4224 377.82 78.2317 377.872C78.0411 377.925 77.8375 377.902 77.6637 377.807C77.49 377.713 77.3596 377.555 77.3001 377.366C74.3091 366.925 70.4026 356.768 65.6261 347.013C63.3931 342.394 60.7021 338.029 58.3681 333.461C56.6931 330.161 55.3731 326.304 57.5561 322.954C57.7561 323.36 58.0131 323.715 58.2161 324.121C55.2211 323.766 53.2921 321.634 51.9731 319.045C49.9931 315.086 48.927 310.518 47.963 306.203C46.8825 301.429 46.2035 296.573 45.9331 291.686C45.6759 290.016 45.8328 288.308 46.39 286.712C46.796 285.697 49.3851 284.123 49.4361 283.412L50.1971 284.173C47.3541 283.873 43.2971 284.579 42.3291 281.331C41.0601 277.27 41.1111 272.245 41.1621 268.083C41.1771 263.637 41.6018 259.203 42.4311 254.835C43.3451 249.911 44.9691 244.988 43.4461 240.014C43.41 239.869 43.4169 239.716 43.4661 239.575C43.5153 239.433 43.6045 239.309 43.7229 239.218C43.8414 239.126 43.9839 239.071 44.1331 239.06C44.2823 239.048 44.4317 239.079 44.5631 239.151C51.7201 242.856 59.0801 246.866 63.2421 254.023C62.8929 253.914 62.5367 253.83 62.1761 253.769C62.8871 253.363 63.6481 252.957 64.3581 252.551C64.5007 252.466 64.667 252.43 64.8318 252.448C64.9967 252.466 65.1512 252.538 65.2721 252.651C69.5361 257.676 80.7531 262.451 76.5401 270.822L75.474 269.756C76.845 268.944 78.2661 268.132 79.6361 267.32C79.8128 267.219 80.0213 267.189 80.2194 267.236C80.4175 267.283 80.5901 267.404 80.7021 267.574C87.1004 279.127 92.1583 291.373 95.7771 304.074C95.8174 304.166 95.8379 304.266 95.8376 304.367C95.8372 304.467 95.8159 304.567 95.7749 304.659C95.734 304.751 95.6743 304.833 95.5998 304.901C95.5252 304.968 95.4374 305.02 95.3419 305.052C95.2465 305.083 95.1454 305.095 95.0452 305.086C94.945 305.076 94.8477 305.046 94.7598 304.997C94.6718 304.948 94.5951 304.882 94.5343 304.801C94.4736 304.721 94.4303 304.629 94.4071 304.531L94.4041 304.536Z" fill="#E8E8E8"/>
<path d="M130.29 252.661C138.817 253.27 143.335 243.271 141.914 236.061C140.544 229.006 133.64 224.031 126.585 224.234C117.296 224.434 112.525 233.523 114.2 241.999C115.672 249.562 123.286 255.145 130.9 252.151C131.814 251.796 132.22 253.268 131.306 253.623C125.215 256.009 118.106 253.217 114.759 247.684C113.025 244.632 112.194 241.15 112.365 237.644C112.536 234.138 113.701 230.753 115.723 227.884C119.885 222.301 127.854 221.539 133.895 224.229C136.858 225.495 139.377 227.614 141.131 230.317C142.885 233.02 143.794 236.184 143.742 239.406C143.59 246.614 138.26 254.735 130.342 254.177C129.327 254.126 129.276 252.604 130.291 252.654L130.29 252.661Z" fill="#E8E8E8"/>
<path d="M52.375 141.146C55.3096 146.614 58.723 151.812 62.5751 156.678C63.1841 157.439 62.1181 158.505 61.5091 157.744C57.555 152.79 54.0554 147.49 51.053 141.908C50.596 141.045 51.9161 140.284 52.3731 141.147L52.375 141.146Z" fill="#E8E8E8"/>
<path d="M52.426 142.364C50.599 147.186 48.6701 152.008 46.6901 156.779C46.3351 157.693 44.863 157.287 45.218 156.373C47.198 151.602 49.126 146.78 50.954 141.958C51.309 141.044 52.781 141.45 52.426 142.364Z" fill="#E8E8E8"/>
<path d="M52.7811 143.074C53.1278 161.95 55.5792 180.728 60.0901 199.06C60.1356 199.252 60.1048 199.455 60.004 199.625C59.9032 199.795 59.7404 199.92 59.5498 199.972C59.3591 200.025 59.1555 200.002 58.9818 199.907C58.808 199.813 58.6776 199.655 58.618 199.466C54.0653 181.003 51.5966 162.087 51.258 143.074C51.207 142.059 52.7301 142.059 52.7811 143.074Z" fill="#E8E8E8"/>
<path d="M44 174.089C42.6701 184.938 42.9954 195.925 44.965 206.676C45.117 207.64 43.6961 208.046 43.4931 207.082C41.5069 196.197 41.1647 185.076 42.4781 174.089C42.6301 173.125 44.153 173.125 44.001 174.089H44Z" fill="#E8E8E8"/>
<path d="M49.838 195.203C48.061 199.264 44.965 202.969 44.762 207.537C44.7594 207.703 44.7036 207.863 44.6028 207.995C44.502 208.126 44.3615 208.222 44.2022 208.267C44.0428 208.313 43.8731 208.306 43.7181 208.248C43.563 208.189 43.4308 208.082 43.3411 207.943C41.5641 204.843 39.7411 201.75 37.9611 198.654C37.8653 198.479 37.8417 198.274 37.8954 198.082C37.9492 197.89 38.0759 197.727 38.2486 197.627C38.4212 197.528 38.626 197.5 38.819 197.55C39.012 197.599 39.1778 197.723 39.281 197.893C41.058 200.993 42.881 204.086 44.661 207.182C44.204 207.334 43.697 207.436 43.239 207.588C43.439 202.665 46.6391 198.858 48.5181 194.488C48.9241 193.524 50.244 194.288 49.838 195.199V195.203Z" fill="#E8E8E8"/>
<path d="M396.16 452.191C365.553 449.349 334.895 445.643 304.186 444.374C273.224 443.105 242.109 443.917 211.147 444.729C193.382 445.186 175.616 446.049 157.952 447.724C156.988 447.824 156.988 446.303 157.952 446.201C189.016 443.257 220.181 442.901 251.347 442.546C266.98 442.346 282.614 442.191 298.197 442.698C313.374 443.155 328.497 444.424 343.625 445.798L396.16 450.671C397.124 450.722 397.124 452.244 396.16 452.194V452.191Z" fill="#E8E8E8"/>
<path d="M236.881 429.755C224.141 432.141 211.553 432.039 198.711 430.872C185.511 429.654 172.368 428.893 159.12 428.283C132.52 427.116 105.926 426.05 79.379 424.933C64.202 424.273 49.0261 423.664 33.8491 423.004C32.8841 422.953 32.8841 421.431 33.8491 421.481L113.742 424.831C139.933 425.948 166.277 426.506 192.417 428.739C199.523 429.348 206.629 430.16 213.735 430.262C221.364 430.347 228.982 429.667 236.475 428.232C237.439 428.132 237.845 429.602 236.881 429.755Z" fill="#E8E8E8"/>
<path d="M582.239 418.995C558.586 419.655 534.932 419.555 511.279 418.695C510.315 418.644 510.315 417.122 511.279 417.172C534.932 418.035 558.586 418.135 582.239 417.472C583.254 417.421 583.254 418.944 582.239 418.995Z" fill="#E8E8E8"/>
<path d="M556.404 439.4C547.775 437.573 538.639 438.74 529.904 439.146C521.123 439.603 512.392 440.009 503.611 440.466C485.744 441.38 467.928 442.293 450.061 443.156C449.097 443.207 449.097 441.684 450.061 441.633L504.626 438.892L531.883 437.522C540.157 437.116 548.583 436.152 556.754 437.928C557.718 438.128 557.312 439.603 556.399 439.4H556.404Z" fill="#E8E8E8"/>
<path d="M419.559 400.723C388.191 402.855 357.33 394.734 326.012 394.835C325.815 394.828 325.628 394.744 325.491 394.602C325.354 394.46 325.278 394.271 325.278 394.074C325.278 393.876 325.354 393.687 325.491 393.545C325.628 393.403 325.815 393.319 326.012 393.312C357.33 393.212 388.191 401.281 419.559 399.2C420.523 399.1 420.523 400.672 419.559 400.723Z" fill="#E8E8E8"/>
<path d="M443.06 242.965C442.831 242.093 442.526 241.244 442.146 240.427C441.892 240.072 441.689 239.767 441.435 239.412C440.369 239.312 439.252 239.158 438.186 239.057C437.886 239.257 437.628 239.869 437.425 240.174C436.71 241.253 435.776 242.169 434.684 242.864C433.598 243.525 432.376 243.932 431.111 244.055C429.845 244.178 428.568 244.014 427.375 243.575C421.132 241.291 418.797 233.017 411.183 233.829C409.15 234.007 407.237 234.865 405.752 236.265C404.635 237.331 403.772 238.651 402.605 239.665C401.621 240.474 400.436 241 399.176 241.188C397.916 241.376 396.629 241.218 395.452 240.732C392.406 239.666 390.072 237.382 387.788 235.199C384.688 232.306 380.174 228.799 376.063 231.899C373.373 233.879 371.799 236.924 368.449 237.99C366.912 238.485 365.278 238.6 363.687 238.326C362.096 238.052 360.595 237.396 359.312 236.416C358.551 235.858 359.312 234.487 360.073 235.096C361.745 236.403 363.846 237.035 365.962 236.866C368.077 236.696 370.052 235.739 371.494 234.182C373.626 232.101 375.453 229.512 378.6 229.157C386.011 228.243 389.868 237.278 396.162 239.357C400.933 240.93 402.507 236.667 405.654 234.332C406.817 233.477 408.138 232.861 409.541 232.521C410.944 232.181 412.401 232.124 413.826 232.352C416.872 232.809 419.206 234.636 421.338 236.717C423.825 239.204 426.465 242.605 430.322 242.605C431.529 242.575 432.709 242.243 433.755 241.64C434.801 241.038 435.68 240.183 436.311 239.154C437.123 238.037 437.783 237.124 439.255 236.971C442.455 236.671 443.823 240.017 444.585 242.504C444.62 242.698 444.583 242.897 444.48 243.065C444.377 243.233 444.216 243.357 444.028 243.414C443.839 243.47 443.637 243.455 443.459 243.372C443.28 243.288 443.139 243.142 443.062 242.961L443.06 242.965Z" fill="#E8E8E8"/>
<path d="M364.794 216.725C362.967 211.395 356.571 215.913 354.135 217.892C352.003 219.618 349.516 221.392 346.623 221.292C341.852 221.092 339.314 216.216 335.405 214.186C329.974 211.394 326.675 218.653 321.396 217.942C319.061 217.642 317.843 215.759 316.371 214.135C314.798 212.409 313.171 212.409 310.94 212.917C308.859 213.425 306.727 213.932 304.646 214.44C304.454 214.486 304.251 214.455 304.081 214.354C303.911 214.253 303.786 214.09 303.734 213.9C303.681 213.709 303.704 213.505 303.799 213.332C303.893 213.158 304.051 213.028 304.24 212.968C306.321 212.46 308.453 211.953 310.534 211.445C311.899 210.951 313.37 210.828 314.798 211.09C317.59 211.953 318.398 215.658 321.198 216.318C324.193 217.029 327.137 213.678 329.725 212.613C330.733 212.143 331.837 211.916 332.949 211.951C334.061 211.985 335.148 212.281 336.125 212.813C338.358 213.98 340.033 215.96 342.013 217.533C343.259 218.699 344.839 219.445 346.531 219.665C349.17 219.817 351.353 217.99 353.282 216.465C355.617 214.638 358.104 212.455 361.302 212.709C362.387 212.728 363.441 213.079 364.321 213.714C365.201 214.349 365.866 215.238 366.226 216.262C366.581 217.226 365.109 217.632 364.805 216.719L364.794 216.725Z" fill="#E8E8E8"/>
<path d="M135.314 68.614C135.771 78.106 136.076 87.648 136.177 97.191C136.17 97.3882 136.087 97.5749 135.945 97.7119C135.803 97.8489 135.613 97.9254 135.415 97.9254C135.218 97.9254 135.029 97.8489 134.887 97.7119C134.745 97.5749 134.661 97.3882 134.654 97.191C134.554 87.648 134.248 78.157 133.791 68.614C133.74 67.65 135.263 67.65 135.314 68.614Z" fill="#E8E8E8"/>
<path d="M134.3 69.323C122.575 67.699 110.647 66.123 98.9731 68.866C98.7806 68.9115 98.578 68.8807 98.4079 68.7799C98.2377 68.6791 98.1133 68.5163 98.0607 68.3257C98.0081 68.135 98.0315 67.9314 98.1259 67.7577C98.2203 67.5839 98.3785 67.4536 98.5671 67.394C110.495 64.552 122.728 66.176 134.707 67.851C135.672 67.951 135.265 69.424 134.301 69.323H134.3Z" fill="#E8E8E8"/>
<path d="M99.936 69.375C99.682 88.663 100.036 108.002 101.053 127.29C101.104 128.254 99.581 128.254 99.53 127.29C98.5147 108.002 98.1424 88.697 98.4131 69.375C98.4202 69.1778 98.5035 68.9911 98.6455 68.8541C98.7875 68.7172 98.9773 68.6406 99.1746 68.6406C99.3719 68.6406 99.5615 68.7172 99.7035 68.8541C99.8455 68.9911 99.9289 69.1778 99.936 69.375Z" fill="#E8E8E8"/>
<path d="M134.907 122.107C134.653 124.543 134.552 127.081 134.095 129.467C134.017 130.007 133.828 130.525 133.54 130.988C133.252 131.451 132.87 131.849 132.42 132.157C129.22 134.238 124.045 133.02 120.542 132.817C115.568 132.517 110.542 132.208 105.568 131.903C103.335 131.751 99.7821 131.142 101.152 128.045C101.558 127.131 102.878 127.945 102.472 128.806C102.218 129.364 105.061 130.278 105.572 130.379C106.397 130.48 107.228 130.531 108.059 130.531C109.531 130.631 111.054 130.731 112.526 130.785C115.521 130.985 118.515 131.14 121.51 131.343C124.251 131.495 127.296 132.054 130.037 131.443C133.489 130.631 133.032 125.043 133.387 122.154C133.487 121.139 135.011 121.139 134.91 122.103L134.907 122.107Z" fill="#E8E8E8"/>
<path d="M144.148 120.233C148.615 126.781 153.234 133.227 157.903 139.623C157.977 139.736 158.017 139.868 158.017 140.004C158.017 140.139 157.977 140.271 157.903 140.384C157.539 140.992 156.977 141.455 156.311 141.696C155.645 141.936 154.916 141.939 154.248 141.704C152.066 141.044 151 138.557 149.883 136.831C148.029 133.983 145.976 131.27 143.741 128.71C142.777 127.644 141.812 126.578 140.797 125.563C139.63 124.396 137.65 121.908 135.975 121.655C135.011 121.503 135.417 120.031 136.381 120.183C137.904 120.437 138.919 121.655 140.036 122.67C141.508 124.04 142.929 125.462 144.3 126.984C146.945 129.921 149.355 133.06 151.508 136.374C152.057 137.37 152.685 138.321 153.386 139.216C154.198 140.383 155.061 140.485 156.076 139.516C155.776 139.11 155.467 138.704 155.213 138.298C153.842 136.42 152.472 134.542 151.152 132.664C148.36 128.756 145.619 124.847 142.929 120.888C142.269 120.177 143.589 119.416 144.147 120.228L144.148 120.233Z" fill="#E8E8E8"/>
<path d="M136.227 122.111C133.103 122.166 130.031 121.3 127.395 119.621C124.76 117.943 122.677 115.525 121.406 112.67C119.173 107.442 120.391 100.64 125.111 97.189C130.542 93.281 137.496 96.225 141.711 100.489C144.337 102.975 146.113 106.225 146.787 109.778C147.001 111.182 146.933 112.614 146.587 113.991C146.389 114.791 146.081 115.559 145.673 116.275C145.573 116.475 143.237 119.775 144.252 119.727C145.216 119.627 145.216 121.148 144.252 121.25C143.917 121.287 143.579 121.233 143.271 121.096C142.964 120.959 142.698 120.742 142.502 120.468C142.306 120.195 142.186 119.874 142.154 119.538C142.123 119.203 142.181 118.865 142.323 118.56C142.678 117.393 143.795 116.58 144.404 115.515C145.27 113.827 145.572 111.906 145.267 110.033C144.404 103.533 137.501 96.733 130.801 96.833C124.201 96.884 120.751 104.244 122.121 110.033C122.954 113.113 124.799 115.824 127.358 117.729C129.917 119.635 133.042 120.625 136.232 120.54C136.441 120.54 136.641 120.623 136.789 120.771C136.936 120.918 137.019 121.118 137.019 121.327C137.019 121.536 136.936 121.736 136.789 121.884C136.641 122.031 136.441 122.114 136.232 122.114L136.227 122.111Z" fill="#E8E8E8"/>
<path d="M129.02 74.704L129.071 74.653V75.719C128.411 74.958 123.843 75.008 122.625 74.856C120.696 74.656 118.717 74.501 116.788 74.399C114.859 74.297 112.88 74.199 110.9 74.145C110.037 74.145 105.52 74.551 105.215 73.739C105.57 74.653 104.098 75.059 103.743 74.145C103.692 74.045 103.692 73.993 103.643 73.891C103.6 73.7583 103.596 73.6161 103.632 73.4813C103.667 73.3464 103.741 73.2246 103.843 73.13C104.96 72.013 106.99 72.521 108.462 72.521C111.254 72.521 113.994 72.621 116.786 72.821C119.375 72.973 121.963 73.227 124.603 73.481C125.923 73.633 129.222 73.43 130.186 74.547C130.321 74.6918 130.395 74.8822 130.395 75.08C130.395 75.2777 130.321 75.4681 130.186 75.613L130.135 75.664C129.374 76.476 128.308 75.364 129.018 74.7L129.02 74.704Z" fill="#E8E8E8"/>
<path d="M129.731 82.114C124.675 82.6704 119.578 82.7708 114.504 82.414C113.54 82.363 113.54 80.841 114.504 80.891C119.442 81.2382 124.401 81.1532 129.325 80.637C130.289 80.537 130.695 82.007 129.731 82.109V82.114Z" fill="#E8E8E8"/>
<path d="M133.182 87.85C133.334 88.002 133.482 88.205 133.639 88.358C133.744 88.4682 133.815 88.6067 133.842 88.7565C133.87 88.9063 133.852 89.0609 133.793 89.2011C133.734 89.3414 133.635 89.4613 133.508 89.546C133.382 89.6307 133.233 89.6766 133.081 89.678C124.249 89.8307 115.417 89.4239 106.636 88.46C105.672 88.36 105.672 86.836 106.636 86.937C115.417 87.901 124.249 88.3078 133.081 88.155C132.881 88.612 132.726 89.018 132.523 89.475C132.371 89.323 132.223 89.12 132.066 88.967C131.457 88.206 132.523 87.14 133.183 87.85H133.182Z" fill="#E8E8E8"/>
<path d="M122.27 96.174C117.66 96.5302 113.024 96.3257 108.464 95.565C107.5 95.413 107.906 93.941 108.87 94.093C113.299 94.8104 117.797 94.9977 122.27 94.651C123.285 94.6 123.285 96.123 122.27 96.174Z" fill="#E8E8E8"/>
<path d="M134.651 116.731C138.762 116.931 142.265 113.331 140.945 109.168C139.93 105.868 136.123 102.368 132.671 101.808C131.828 101.662 130.963 101.705 130.138 101.933C129.313 102.162 128.549 102.57 127.9 103.128C126.022 104.854 126.53 107.392 127.392 109.473C128.864 113.128 131.554 116.427 135.666 116.884C136.63 116.984 136.63 118.508 135.666 118.407C130.387 117.849 126.631 113.331 125.366 108.357C124.148 103.687 127.599 99.83 132.421 100.236C136.888 100.642 141.811 105.16 142.621 109.575C142.811 110.696 142.741 111.845 142.419 112.935C142.097 114.026 141.529 115.028 140.761 115.865C139.992 116.702 139.042 117.353 137.983 117.767C136.924 118.182 135.785 118.348 134.652 118.255C133.688 118.204 133.688 116.682 134.652 116.732L134.651 116.731Z" fill="#E8E8E8"/>
<path d="M133.792 102.469C135.822 106.834 137.7 111.25 139.375 115.717C139.73 116.631 138.258 117.037 137.903 116.123C136.228 111.758 134.451 107.443 132.472 103.23C132.066 102.316 133.335 101.555 133.792 102.469Z" fill="#E8E8E8"/>
<path d="M131.457 106.833C132.777 109.574 134.046 112.315 135.365 115.056C135.771 115.919 134.451 116.731 134.045 115.817C132.725 113.076 131.456 110.335 130.137 107.594C129.731 106.731 131 105.919 131.457 106.833Z" fill="#E8E8E8"/>
<path d="M508.792 23.947V37.855C508.785 38.0522 508.702 38.2389 508.56 38.3759C508.417 38.5129 508.228 38.5894 508.031 38.5894C507.833 38.5894 507.644 38.5129 507.502 38.3759C507.36 38.2389 507.276 38.0522 507.269 37.855V23.947C507.276 23.7498 507.36 23.5631 507.502 23.4261C507.644 23.2891 507.833 23.2126 508.031 23.2126C508.228 23.2126 508.417 23.2891 508.56 23.4261C508.702 23.5631 508.785 23.7498 508.792 23.947Z" fill="#363636"/>
<path d="M507.827 38.513H494.936C494.739 38.5059 494.552 38.4225 494.415 38.2805C494.278 38.1384 494.202 37.9488 494.202 37.7515C494.202 37.5542 494.278 37.3646 494.415 37.2225C494.552 37.0805 494.739 36.9972 494.936 36.99H507.829C508.026 36.9972 508.213 37.0805 508.35 37.2225C508.487 37.3646 508.563 37.5542 508.563 37.7515C508.563 37.9488 508.487 38.1384 508.35 38.2805C508.213 38.4225 508.026 38.5059 507.829 38.513H507.827Z" fill="#363636"/>
<path d="M494.022 36.888V21.764C494.029 21.5668 494.113 21.3801 494.255 21.2431C494.397 21.1061 494.586 21.0296 494.784 21.0296C494.981 21.0296 495.17 21.1061 495.312 21.2431C495.455 21.3801 495.538 21.5668 495.545 21.764V36.89C495.538 37.0872 495.455 37.2739 495.312 37.4109C495.17 37.5479 494.981 37.6244 494.784 37.6244C494.586 37.6244 494.397 37.5479 494.255 37.4109C494.113 37.2739 494.029 37.0872 494.022 36.89V36.888Z" fill="#363636"/>
<path d="M494.581 20.798H507.781C507.978 20.8052 508.165 20.8885 508.302 21.0305C508.439 21.1726 508.515 21.3622 508.515 21.5595C508.515 21.7568 508.439 21.9464 508.302 22.0885C508.165 22.2305 507.978 22.3139 507.781 22.321H494.581C494.384 22.3139 494.197 22.2305 494.06 22.0885C493.923 21.9464 493.847 21.7568 493.847 21.5595C493.847 21.3622 493.923 21.1726 494.06 21.0305C494.197 20.8885 494.384 20.8052 494.581 20.798Z" fill="#363636"/>
<path d="M502.346 39.327V54.807C502.339 55.0042 502.256 55.1909 502.113 55.3279C501.971 55.4649 501.782 55.5414 501.585 55.5414C501.387 55.5414 501.198 55.4649 501.056 55.3279C500.914 55.1909 500.83 55.0042 500.823 54.807V39.327C500.83 39.1298 500.914 38.9431 501.056 38.8061C501.198 38.6691 501.387 38.5926 501.585 38.5926C501.782 38.5926 501.971 38.6691 502.113 38.8061C502.256 38.9431 502.339 39.1298 502.346 39.327Z" fill="#363636"/>
<path d="M520.212 54.603C514.578 49.2223 508.707 44.062 502.599 39.122C501.838 38.513 502.899 37.447 503.665 38.056C509.756 42.98 515.593 48.106 521.278 53.537C521.989 54.197 520.923 55.263 520.212 54.603Z" fill="#363636"/>
<path d="M500.721 39.63L482.448 53.487C481.687 54.096 480.925 52.776 481.687 52.167L499.96 38.31C500.721 37.701 501.483 39.021 500.721 39.63Z" fill="#363636"/>
<path d="M526.101 56.431H516.001C515.804 56.4239 515.617 56.3405 515.48 56.1985C515.343 56.0564 515.267 55.8668 515.267 55.6695C515.267 55.4722 515.343 55.2826 515.48 55.1405C515.617 54.9985 515.804 54.9152 516.001 54.908H526.101C526.298 54.9152 526.485 54.9985 526.622 55.1405C526.759 55.2826 526.835 55.4722 526.835 55.6695C526.835 55.8668 526.759 56.0564 526.622 56.1985C526.485 56.3405 526.298 56.4239 526.101 56.431Z" fill="#363636"/>
<path d="M516.914 56.735V68.206C516.907 68.4032 516.824 68.5899 516.682 68.7269C516.539 68.8639 516.35 68.9404 516.153 68.9404C515.955 68.9404 515.766 68.8639 515.624 68.7269C515.482 68.5899 515.398 68.4032 515.391 68.206V56.735C515.391 56.5331 515.471 56.3394 515.614 56.1965C515.757 56.0537 515.951 55.9735 516.153 55.9735C516.355 55.9735 516.548 56.0537 516.691 56.1965C516.834 56.3394 516.914 56.5331 516.914 56.735Z" fill="#363636"/>
<path d="M527.217 56.024V69.424C527.21 69.6212 527.127 69.8079 526.984 69.9449C526.842 70.0819 526.653 70.1584 526.456 70.1584C526.258 70.1584 526.069 70.0819 525.927 69.9449C525.785 69.8079 525.701 69.6212 525.694 69.424V56.024C525.694 55.822 525.774 55.6284 525.917 55.4855C526.06 55.3427 526.254 55.2625 526.456 55.2625C526.657 55.2625 526.851 55.3427 526.994 55.4855C527.137 55.6284 527.217 55.822 527.217 56.024Z" fill="#363636"/>
<path d="M526.609 70.338H517.22C517.023 70.3309 516.836 70.2475 516.699 70.1055C516.562 69.9635 516.486 69.7738 516.486 69.5765C516.486 69.3792 516.562 69.1896 516.699 69.0475C516.836 68.9055 517.023 68.8222 517.22 68.815H526.61C526.807 68.8222 526.994 68.9055 527.131 69.0475C527.268 69.1896 527.344 69.3792 527.344 69.5765C527.344 69.7738 527.268 69.9635 527.131 70.1055C526.994 70.2475 526.807 70.3309 526.61 70.338H526.609Z" fill="#363636"/>
<path d="M507.016 56.379V69.579C507.009 69.7762 506.926 69.9629 506.784 70.0999C506.641 70.2369 506.452 70.3134 506.255 70.3134C506.057 70.3134 505.868 70.2369 505.726 70.0999C505.584 69.9629 505.5 69.7762 505.493 69.579V56.379C505.493 56.177 505.573 55.9834 505.716 55.8405C505.859 55.6977 506.053 55.6175 506.255 55.6175C506.457 55.6175 506.65 55.6977 506.793 55.8405C506.936 55.9834 507.016 56.177 507.016 56.379Z" fill="#363636"/>
<path d="M506.254 69.983H497.018C496.821 69.9759 496.634 69.8925 496.497 69.7505C496.36 69.6084 496.284 69.4188 496.284 69.2215C496.284 69.0242 496.36 68.8346 496.497 68.6925C496.634 68.5505 496.821 68.4671 497.018 68.46H506.256C506.453 68.4671 506.64 68.5505 506.777 68.6925C506.914 68.8346 506.99 69.0242 506.99 69.2215C506.99 69.4188 506.914 69.6084 506.777 69.7505C506.64 69.8925 506.453 69.9759 506.256 69.983H506.254Z" fill="#363636"/>
<path d="M505.746 57.141H497.576C497.379 57.1339 497.192 57.0505 497.055 56.9085C496.918 56.7664 496.842 56.5768 496.842 56.3795C496.842 56.1822 496.918 55.9926 497.055 55.8505C497.192 55.7085 497.379 55.6252 497.576 55.618H505.748C505.945 55.6252 506.132 55.7085 506.269 55.8505C506.406 55.9926 506.482 56.1822 506.482 56.3795C506.482 56.5768 506.406 56.7664 506.269 56.9085C506.132 57.0505 505.945 57.1339 505.748 57.141H505.746Z" fill="#363636"/>
<path d="M498.133 56.178V68.715C498.126 68.9122 498.043 69.0989 497.9 69.2359C497.758 69.3729 497.569 69.4494 497.372 69.4494C497.174 69.4494 496.985 69.3729 496.843 69.2359C496.701 69.0989 496.617 68.9122 496.61 68.715V56.178C496.617 55.9808 496.701 55.7941 496.843 55.6571C496.985 55.5201 497.174 55.4436 497.372 55.4436C497.569 55.4436 497.758 55.5201 497.9 55.6571C498.043 55.7941 498.126 55.9808 498.133 56.178Z" fill="#363636"/>
<path d="M485.494 56.178C485.646 59.478 485.748 62.778 485.748 66.078C485.741 66.2752 485.658 66.4619 485.516 66.5989C485.373 66.7359 485.184 66.8124 484.987 66.8124C484.789 66.8124 484.6 66.7359 484.458 66.5989C484.316 66.4619 484.232 66.2752 484.225 66.078C484.225 62.778 484.125 59.478 483.971 56.178C483.92 55.214 485.443 55.214 485.494 56.178Z" fill="#363636"/>
<path d="M484.835 56.533C481.485 56.178 478.135 55.772 474.785 55.416C473.821 55.316 473.821 53.792 474.785 53.893C478.135 54.248 481.485 54.654 484.835 55.01C485.799 55.11 485.85 56.634 484.835 56.533Z" fill="#363636"/>
<path d="M475.292 54.96C475.657 58.3263 475.537 61.7276 474.937 65.06C474.785 66.024 473.313 65.618 473.465 64.654C474.021 61.4526 474.122 58.1887 473.765 54.959C473.665 53.995 475.186 53.995 475.288 54.959L475.292 54.96Z" fill="#363636"/>
<path d="M484.326 67.394L474.276 65.871C473.312 65.719 473.718 64.247 474.682 64.399L484.732 65.922C485.696 66.074 485.29 67.495 484.326 67.394Z" fill="#363636"/>
<path d="M502.549 70.44C504.403 73.287 506.065 76.2546 507.523 79.323C507.929 80.186 506.609 80.998 506.203 80.084C504.736 77.02 503.075 74.053 501.229 71.201C500.721 70.389 502.041 69.628 502.549 70.44Z" fill="#363636"/>
<path d="M502.092 71.048C500.23 73.5514 498.599 76.2187 497.219 79.017C496.762 79.88 495.443 79.117 495.899 78.256C497.305 75.4723 498.934 72.8072 500.771 70.287C501.329 69.475 502.649 70.236 502.091 71.048H502.092Z" fill="#363636"/>
<path d="M510.264 81.302C509.198 81.302 508.132 81.302 507.015 81.353C506.523 81.3611 506.032 81.3944 505.543 81.453C504.629 81.504 504.731 81.199 504.579 82.011C504.224 83.94 504.63 86.427 504.779 88.411C504.879 89.375 503.358 89.375 503.256 88.411C503.156 86.888 503.056 85.311 503.056 83.792C503.056 82.929 502.802 81.508 503.256 80.692C503.713 79.931 504.779 80.032 505.54 79.981C507.113 79.8797 508.687 79.829 510.261 79.829C511.225 79.778 511.225 81.301 510.261 81.301L510.264 81.302Z" fill="#363636"/>
<path d="M511.28 81.252C511.128 83.029 510.98 84.752 510.823 86.531C510.723 87.952 510.923 90.031 510.366 91.404C510.31 91.6367 510.181 91.8456 509.999 92.0006C509.817 92.1557 509.59 92.2489 509.351 92.267C508.031 92.521 506.051 91.861 504.732 91.658C503.768 91.506 504.174 90.085 505.138 90.186C506.052 90.286 507.473 90.846 508.338 90.643C509.302 90.389 509.099 89.07 509.15 88.054C509.35 85.77 509.556 83.536 509.759 81.254C509.859 80.29 511.383 80.239 511.282 81.254L511.28 81.252Z" fill="#363636"/>
<path d="M499.808 81.048C499.917 82.5344 499.951 84.0253 499.908 85.515C499.742 86.778 499.642 88.0487 499.608 89.322C499.354 89.271 499.1 89.17 498.847 89.122C498.898 89.122 498.947 89.071 499.047 89.071C498.874 89.3176 498.687 89.5549 498.489 89.782V89.582C498.663 89.8286 498.849 90.0659 499.047 90.293C499.019 90.2964 498.992 90.2936 498.965 90.2847C498.939 90.2759 498.915 90.2613 498.895 90.242C497.931 90.042 498.337 88.567 499.301 88.77C499.329 88.7667 499.356 88.7696 499.383 88.7784C499.409 88.7872 499.433 88.8018 499.453 88.821C499.615 88.8556 499.759 88.9456 499.861 89.0755C499.963 89.2054 500.016 89.367 500.011 89.532V89.732C500.006 89.8946 499.949 90.0514 499.849 90.1793C499.749 90.3073 499.61 90.3997 499.453 90.443C498.133 90.697 498.133 89.479 498.184 88.514C498.421 85.9827 498.454 83.4366 498.284 80.9C498.233 80.037 499.756 80.088 499.807 81.052L499.808 81.048Z" fill="#363636"/>
<path d="M498.894 81.404C498.894 81.049 495.645 80.947 495.189 80.998C493.92 81.198 494.174 81.298 493.971 82.216C493.903 82.9109 493.937 83.6119 494.071 84.297C494.122 85.566 494.122 86.784 494.071 88.053C494.071 88.764 493.563 90.895 493.919 91.403C493.57 91.2944 493.214 91.2096 492.853 91.149C492.904 91.149 492.953 91.098 493.005 91.098C492.905 91.398 492.751 91.656 492.65 91.961C492.65 91.91 492.599 91.861 492.599 91.809C492.553 91.6166 492.584 91.414 492.685 91.2438C492.786 91.0737 492.949 90.9492 493.139 90.8967C493.33 90.8441 493.534 90.8675 493.707 90.9619C493.881 91.0563 494.011 91.2145 494.071 91.403C494.071 91.454 494.122 91.503 494.122 91.555C494.169 91.7178 494.159 91.8917 494.095 92.0484C494.03 92.205 493.915 92.3353 493.767 92.418C493.716 92.418 493.667 92.469 493.615 92.469C493.436 92.5582 493.231 92.5817 493.036 92.5353C492.841 92.4888 492.669 92.3755 492.549 92.215C492.194 91.707 492.349 91.2 492.397 90.591C492.448 89.221 492.549 87.799 492.549 86.429C492.549 85.059 492.498 83.637 492.449 82.267C492.285 81.6037 492.356 80.9041 492.649 80.287C493.512 79.12 496.249 79.475 497.37 79.627C498.639 79.779 500.314 79.927 500.415 81.454C500.415 82.368 498.892 82.368 498.892 81.403L498.894 81.404Z" fill="#363636"/>
<path d="M498.742 91.707C497.225 91.6128 495.701 91.7496 494.225 92.113C494.033 92.1585 493.83 92.1277 493.66 92.0269C493.49 91.9261 493.365 91.7633 493.313 91.5727C493.26 91.382 493.283 91.1784 493.378 91.0047C493.472 90.8309 493.63 90.7006 493.819 90.641C495.42 90.194 497.085 90.0223 498.743 90.133C499.758 90.233 499.758 91.757 498.743 91.707H498.742Z" fill="#363636"/>
<path d="M479.656 67.699C480.874 70.389 481.94 73.181 482.905 75.973C483.205 76.887 481.738 77.293 481.433 76.379C480.519 73.689 479.504 71.049 478.333 68.461C477.927 67.547 479.247 66.786 479.653 67.7L479.656 67.699Z" fill="#363636"/>
<path d="M487.423 79.728C484.884 78.9994 482.246 78.6741 479.606 78.764C478.642 78.815 478.642 77.292 479.606 77.241C482.383 77.1461 485.158 77.4886 487.829 78.256C488.018 78.3156 488.176 78.4459 488.27 78.6197C488.365 78.7934 488.388 78.997 488.335 79.1876C488.283 79.3783 488.158 79.5411 487.988 79.6419C487.818 79.7427 487.615 79.7735 487.423 79.728Z" fill="#363636"/>
<path d="M487.473 79.018C487.93 80.439 487.573 81.759 487.422 83.18C487.287 84.8855 487.254 86.5975 487.322 88.307C487.422 90.54 486.865 90.794 484.632 90.591C483.109 90.439 481.032 90.845 480.47 89.17C479.962 87.546 480.115 85.363 479.962 83.637C479.81 81.81 479.607 79.932 479.454 78.104C479.354 77.14 480.875 77.14 480.977 78.104C481.177 80.236 481.383 82.418 481.586 84.55C481.62 85.4846 481.705 86.4166 481.84 87.342C482.14 88.763 482.297 88.865 483.769 89.017C484.226 89.068 484.632 89.117 485.089 89.169C485.952 89.469 486.206 89.22 485.85 88.357C485.909 87.4942 485.892 86.6279 485.799 85.768C485.85 83.839 486.611 81.251 486.053 79.423C485.698 78.459 487.17 78.053 487.474 79.017L487.473 79.018Z" fill="#363636"/>
<path d="M477.526 69.12C476.368 70.9176 475.318 72.7819 474.379 74.703C473.973 75.566 472.653 74.803 473.059 73.942C473.989 72.0164 475.04 70.1516 476.206 68.359C476.764 67.496 478.084 68.259 477.526 69.12Z" fill="#363636"/>
<path d="M475.799 76.937H468.185C467.988 76.9298 467.801 76.8465 467.664 76.7045C467.527 76.5625 467.451 76.3728 467.451 76.1755C467.451 75.9782 467.527 75.7886 467.664 75.6465C467.801 75.5045 467.988 75.4212 468.185 75.414H468.642C468.839 75.4212 469.026 75.5045 469.163 75.6465C469.3 75.7886 469.376 75.9782 469.376 76.1755C469.376 76.3728 469.3 76.5625 469.163 76.7045C469.026 76.8465 468.839 76.9298 468.642 76.937H468.185C467.988 76.9298 467.801 76.8465 467.664 76.7045C467.527 76.5625 467.451 76.3728 467.451 76.1755C467.451 75.9782 467.527 75.7886 467.664 75.6465C467.801 75.5045 467.988 75.4212 468.185 75.414H475.799C476.001 75.414 476.195 75.4942 476.337 75.637C476.48 75.7798 476.561 75.9736 476.561 76.1755C476.561 76.3775 476.48 76.5712 476.337 76.714C476.195 76.8568 476.001 76.937 475.799 76.937Z" fill="#363636"/>
<path d="M476.562 76.886C476.362 78.815 476.207 80.744 476.156 82.672C476.105 84.042 476.562 86.377 475.956 87.646C475.601 88.407 475.144 88.509 474.332 88.509C472.392 88.3553 470.46 88.1013 468.546 87.748C468.393 87.6979 468.259 87.6036 468.159 87.4771C468.06 87.3505 468 87.1974 467.988 87.037C468.039 83.585 468.088 80.185 468.14 76.737C468.147 76.5398 468.231 76.3531 468.373 76.2161C468.515 76.0792 468.704 76.0026 468.902 76.0026C469.099 76.0026 469.288 76.0792 469.431 76.2161C469.573 76.3531 469.656 76.5398 469.663 76.737C469.612 80.189 469.563 83.589 469.511 87.037C469.338 86.7905 469.151 86.5532 468.953 86.326C470.171 86.478 471.389 86.626 472.608 86.834C473.014 86.885 474.182 87.24 474.537 86.934C474.791 86.734 474.537 85.157 474.537 84.853C474.588 82.214 474.737 79.574 474.994 76.986C475.146 75.92 476.669 75.92 476.568 76.886H476.562Z" fill="#363636"/>
<path d="M532.902 81.048C530.302 78.6156 527.556 76.3447 524.679 74.248C523.918 73.69 524.679 72.37 525.44 72.928C528.429 75.0971 531.277 77.4535 533.967 79.983C534.678 80.643 533.612 81.709 532.901 81.049L532.902 81.048Z" fill="#363636"/>
<path d="M525.137 73.587C523.634 75.7332 522.359 78.0295 521.33 80.439C520.924 81.353 519.604 80.539 520.01 79.678C521.056 77.2772 522.331 74.9826 523.817 72.826C524.375 72.014 525.695 72.775 525.137 73.587Z" fill="#363636"/>
<path d="M539.653 83.84C538.283 83.74 536.963 83.64 535.592 83.54C534.988 83.4411 534.377 83.3903 533.765 83.388C533.054 83.134 532.851 83.188 533.156 83.588C533.362 83.8643 533.453 84.2099 533.41 84.552C533.892 87.0788 534.146 89.6437 534.171 92.216C533.714 92.016 533.308 91.861 532.851 91.658C532.913 91.6011 532.965 91.5333 533.003 91.458C533.663 90.747 534.729 91.813 534.069 92.524C534.007 92.581 533.955 92.6487 533.917 92.724C533.806 92.8268 533.668 92.8955 533.519 92.9216C533.37 92.9478 533.216 92.9303 533.077 92.8714C532.937 92.8125 532.818 92.7146 532.733 92.5895C532.648 92.4643 532.601 92.3173 532.597 92.166C532.539 89.9902 532.353 87.8198 532.039 85.666C531.887 84.752 531.227 83.23 531.785 82.316C532.242 81.605 533.003 81.758 533.714 81.808C535.694 81.96 537.622 82.108 539.602 82.265C540.617 82.417 540.617 83.94 539.653 83.839V83.84Z" fill="#363636"/>
<path d="M538.637 82.368H538.837C538.967 82.374 539.093 82.4091 539.207 82.4705C539.322 82.5319 539.421 82.6182 539.497 82.723C540.309 84.093 540.258 86.479 540.512 88.053L541.578 94.753C541.629 95.159 541.478 95.616 541.07 95.667C538.776 96.203 536.374 96.0439 534.17 95.21C533.256 94.855 533.662 93.383 534.576 93.738C536.515 94.4966 538.637 94.6558 540.667 94.195C540.515 94.495 540.312 94.804 540.159 95.109C540.007 94.094 538.23 83.891 538.738 83.841C537.672 83.993 537.672 82.471 538.638 82.369L538.637 82.368Z" fill="#363636"/>
<path d="M524.831 82.114L524.882 82.165H523.816C523.867 82.165 523.867 82.114 523.916 82.114V83.18C523.529 83.1342 523.139 83.1171 522.749 83.129C522.191 83.078 521.582 83.029 521.023 83.029C519.955 82.9862 518.886 83.0196 517.823 83.129C518.023 82.672 518.178 82.266 518.381 81.809C518.475 81.8629 518.561 81.9303 518.635 82.009C519.599 82.109 519.599 83.633 518.635 83.532C518.373 83.5244 518.116 83.4616 517.88 83.3479C517.644 83.2342 517.434 83.072 517.265 82.872C517.16 82.7618 517.089 82.6233 517.062 82.4735C517.035 82.3237 517.052 82.1692 517.111 82.0289C517.17 81.8886 517.269 81.7688 517.396 81.684C517.522 81.5993 517.671 81.5534 517.823 81.552C519.292 81.4335 520.768 81.4165 522.239 81.501C522.95 81.552 524.422 81.401 524.929 82.059C525.001 82.1277 525.059 82.2103 525.098 82.302C525.138 82.3936 525.158 82.4923 525.158 82.592C525.158 82.6917 525.138 82.7904 525.098 82.8821C525.059 82.9737 525.001 83.0563 524.929 83.125C524.878 83.125 524.878 83.176 524.829 83.176C524.76 83.2483 524.678 83.3059 524.586 83.3453C524.494 83.3846 524.396 83.4049 524.296 83.4049C524.196 83.4049 524.098 83.3846 524.006 83.3453C523.914 83.3059 523.832 83.2483 523.763 83.176L523.712 83.125C523.103 82.465 524.169 81.399 524.829 82.11L524.831 82.114Z" fill="#363636"/>
<path d="M525.44 82.469C525.592 84.55 525.74 86.631 525.846 88.712C525.897 89.879 526.557 92.874 525.846 93.94C525.712 94.1766 525.509 94.3666 525.264 94.4845C525.02 94.6025 524.744 94.6428 524.476 94.6C523.795 94.4744 523.13 94.2701 522.496 93.991C521.272 93.6614 520.007 93.5075 518.74 93.534C518.543 93.5269 518.356 93.4435 518.219 93.3015C518.082 93.1594 518.006 92.9698 518.006 92.7725C518.006 92.5752 518.082 92.3856 518.219 92.2436C518.356 92.1015 518.543 92.0182 518.74 92.011C519.867 92.0035 520.99 92.1226 522.09 92.366C522.598 92.466 523.562 93.026 524.019 92.924C524.374 93.178 524.527 93.124 524.425 92.724C524.476 92.3025 524.476 91.8765 524.425 91.455C524.374 88.511 524.125 85.516 523.917 82.572C523.905 82.4693 523.915 82.3653 523.944 82.2663C523.974 82.1672 524.024 82.0753 524.09 81.9959C524.156 81.9166 524.238 81.8516 524.33 81.8047C524.422 81.7579 524.523 81.7302 524.626 81.7235C524.729 81.7167 524.833 81.7309 524.93 81.7653C525.028 81.7997 525.117 81.8535 525.193 81.9235C525.269 81.9935 525.331 82.0782 525.373 82.1724C525.415 82.2667 525.438 82.3686 525.44 82.472V82.469Z" fill="#363636"/>
<path d="M518.892 82.623C519.307 86.0244 519.493 89.4497 519.45 92.876C519.443 93.0732 519.36 93.2599 519.218 93.3969C519.076 93.5339 518.886 93.6104 518.689 93.6104C518.491 93.6104 518.302 93.5339 518.16 93.3969C518.018 93.2599 517.934 93.0732 517.927 92.876C517.972 89.4498 517.787 86.0245 517.374 82.623C517.222 81.659 518.744 81.659 518.897 82.623H518.892Z" fill="#363636"/>
<path d="M113.437 295.552C101.468 321.897 93.0697 349.721 88.4641 378.288C88.3121 379.252 86.84 378.846 86.992 377.882C91.6489 349.194 100.098 321.253 112.117 294.791C112.523 293.928 113.843 294.691 113.437 295.552Z" fill="#E8E8E8"/>
<path d="M50.244 250.986C65.065 273.624 77.9581 297.48 87.0941 323.012C87.4491 323.926 85.9771 324.332 85.6221 323.418C76.5361 297.988 63.6951 274.284 48.9221 251.748C48.4141 250.936 49.7341 250.175 50.2421 250.987L50.244 250.986Z" fill="#E8E8E8"/>
<path d="M118.614 323.368C110.415 325.579 103.304 330.704 98.614 337.783C98.056 338.595 96.736 337.834 97.294 337.022C102.191 329.602 109.626 324.224 118.206 321.896C118.398 321.85 118.601 321.881 118.771 321.982C118.941 322.083 119.066 322.246 119.118 322.436C119.171 322.627 119.148 322.831 119.053 323.004C118.959 323.178 118.801 323.308 118.612 323.368H118.614Z" fill="#E8E8E8"/>
<path d="M98.819 302.302C101.63 306.89 103.478 312.001 104.25 317.326C104.402 318.29 102.93 318.696 102.778 317.732C102.026 312.536 100.23 307.546 97.4991 303.063C96.9911 302.251 98.311 301.49 98.819 302.302Z" fill="#E8E8E8"/>
<path d="M83.0331 273.776C80.6291 276.503 78.7532 279.653 77.5011 283.065C76.8921 284.588 76.3841 286.165 75.9281 287.684C75.4711 289.156 74.405 291.339 75.014 292.811C75.369 293.725 73.898 294.131 73.542 293.217C72.933 291.745 73.542 290.273 73.999 288.852C74.608 286.771 75.2681 284.69 76.0801 282.659C77.4368 278.993 79.4488 275.605 82.0181 272.659C82.6271 271.948 83.6931 273.014 83.0331 273.776Z" fill="#E8E8E8"/>
<path d="M65.8261 279.614C59.5342 272.333 51.2082 267.101 41.919 264.59C41.7304 264.53 41.5724 264.4 41.4779 264.226C41.3835 264.053 41.36 263.849 41.4126 263.658C41.4652 263.468 41.5896 263.305 41.7598 263.204C41.9299 263.103 42.1325 263.072 42.325 263.118C51.8575 265.696 60.4087 271.049 66.892 278.498C67.501 279.259 66.4351 280.376 65.8261 279.615V279.614Z" fill="#E8E8E8"/>
<path d="M83.745 320.372C79.136 316.421 73.8353 313.358 68.111 311.337C65.522 310.373 62.9341 309.611 60.2941 308.85C58.8221 308.444 57.401 308.089 55.929 307.683C55.218 307.531 52.2241 306.313 51.6651 306.617C51.7735 306.268 51.8584 305.912 51.9191 305.551C51.9701 305.602 51.9701 305.651 52.0191 305.703C51.6699 305.594 51.3137 305.51 50.953 305.449C51.004 305.449 51.053 305.398 51.105 305.398C51.968 304.941 52.729 306.261 51.866 306.718C51.815 306.718 51.766 306.769 51.714 306.769C51.5367 306.867 51.329 306.896 51.1317 306.849C50.9345 306.802 50.762 306.683 50.6481 306.515C50.5971 306.464 50.597 306.415 50.548 306.363C50.4496 306.186 50.421 305.978 50.468 305.781C50.515 305.583 50.6342 305.411 50.802 305.297C51.512 304.891 52.274 305.246 53.035 305.397C54.761 305.803 56.4871 306.209 58.2121 306.666C61.5121 307.529 64.812 308.493 68.059 309.61C74.198 311.664 79.8727 314.907 84.759 319.153C85.5201 319.914 84.459 321.031 83.744 320.371L83.745 320.372Z" fill="#E8E8E8"/>
<path d="M109.631 383.007C98.109 385.799 86.3841 383.718 74.8621 382.347C62.3761 380.875 49.838 380.621 37.301 380.418C37.1038 380.411 36.9171 380.328 36.7802 380.185C36.6432 380.043 36.5667 379.854 36.5667 379.656C36.5667 379.459 36.6432 379.27 36.7802 379.128C36.9171 378.985 37.1038 378.902 37.301 378.895C49.534 379.095 61.766 379.352 73.901 380.722C85.626 382.092 97.555 384.377 109.229 381.534C109.419 381.494 109.618 381.528 109.784 381.63C109.95 381.731 110.071 381.892 110.123 382.079C110.175 382.267 110.153 382.467 110.062 382.639C109.972 382.811 109.819 382.943 109.635 383.006L109.631 383.007Z" fill="#E8E8E8"/>
<path d="M73.288 378.693C52.782 377.626 32.2756 376.543 11.769 375.444C10.805 375.393 10.805 373.871 11.769 373.921C32.2756 374.988 52.782 376.071 73.288 377.17C74.252 377.221 74.252 378.743 73.288 378.693Z" fill="#E8E8E8"/>
<path d="M132.015 232.154C137.04 233.118 143.182 228.296 143.03 222.967C142.83 216.927 135.264 214.897 130.442 214.846C125.112 214.846 121.356 218.957 122.625 224.338C123.239 226.625 124.596 228.643 126.483 230.074C127.549 230.937 131.863 234.084 133.083 232.561C133.692 231.8 134.758 232.861 134.149 233.627C132.525 235.657 129.175 233.576 127.449 232.612C124.697 231.081 122.563 228.642 121.409 225.712C119.379 219.773 122.982 213.835 129.226 213.378C135.165 212.921 144.352 215.662 144.504 222.971C144.604 229.371 137.604 234.747 131.561 233.63C130.648 233.478 131.054 232.006 132.018 232.158L132.015 232.154Z" fill="#E8E8E8"/>
<path d="M521.634 256.062C523.519 258.203 525.154 260.551 526.507 263.062C526.964 263.925 525.644 264.686 525.187 263.823C523.877 261.427 522.311 259.181 520.517 257.123C519.908 256.412 520.974 255.296 521.634 256.057V256.062Z" fill="#161616"/>
<path d="M521.684 256.671C520.161 258.803 518.639 260.884 517.116 263.016C516.558 263.828 515.238 263.067 515.796 262.255C517.319 260.123 518.841 258.042 520.364 255.91C520.973 255.098 522.293 255.859 521.684 256.671Z" fill="#161616"/>
<path d="M521.787 259.666C521.33 277.584 520.924 295.501 520.467 313.466C520.46 313.663 520.377 313.85 520.234 313.987C520.092 314.124 519.903 314.2 519.706 314.2C519.508 314.2 519.319 314.124 519.177 313.987C519.035 313.85 518.951 313.663 518.944 313.466C519.401 295.548 519.807 277.631 520.264 259.666C520.315 258.702 521.837 258.651 521.787 259.666Z" fill="#161616"/>
<path d="M518.792 314.891H451.184C450.987 314.884 450.8 314.801 450.663 314.659C450.526 314.516 450.45 314.327 450.45 314.13C450.45 313.932 450.526 313.743 450.663 313.601C450.8 313.458 450.987 313.375 451.184 313.368H518.794C518.991 313.375 519.178 313.458 519.315 313.601C519.452 313.743 519.528 313.932 519.528 314.13C519.528 314.327 519.452 314.516 519.315 314.659C519.178 314.801 518.991 314.884 518.794 314.891H518.792Z" fill="#161616"/>
<path d="M454.126 313.368C452.552 313.977 451.026 314.586 449.456 315.195C449.656 314.637 449.913 314.078 450.116 313.52C450.863 314.859 451.948 315.979 453.263 316.769C453.513 316.93 453.692 317.181 453.76 317.47C453.829 317.76 453.783 318.064 453.632 318.321C453.481 318.577 453.237 318.765 452.951 318.844C452.664 318.924 452.358 318.89 452.096 318.749C450.425 317.772 449.042 316.371 448.086 314.688C447.999 314.538 447.948 314.371 447.935 314.198C447.922 314.025 447.948 313.852 448.011 313.691C448.075 313.53 448.174 313.385 448.301 313.268C448.428 313.15 448.58 313.063 448.746 313.013C450.32 312.404 451.846 311.795 453.416 311.186C454.888 310.628 455.497 312.81 454.127 313.369L454.126 313.368Z" fill="#161616"/>
<path d="M64.3031 39.22C66.3331 36.53 63.4401 32.42 60.2931 34.449C59.9367 34.6529 59.6252 34.9267 59.3773 35.254C59.1295 35.5813 58.9503 35.9554 58.8507 36.3537C58.7512 36.752 58.7332 37.1663 58.7979 37.5718C58.8625 37.9773 59.0085 38.3654 59.2271 38.713C59.6848 39.3661 60.3555 39.8397 61.1242 40.0526C61.8928 40.2656 62.7115 40.2045 63.4401 39.88C64.3031 39.423 65.0641 40.743 64.2011 41.2C63.1744 41.6851 62.0138 41.8088 60.908 41.5508C59.8021 41.2928 58.816 40.6684 58.11 39.779C57.7545 39.3066 57.4961 38.7685 57.3496 38.1957C57.2031 37.6229 57.1715 37.0268 57.2565 36.4417C57.3415 35.8566 57.5414 35.2941 57.8447 34.7867C58.1481 34.2792 58.5489 33.8368 59.0241 33.485C59.8948 32.7379 61.0212 32.3574 62.1666 32.4236C63.3121 32.4898 64.3872 32.9975 65.166 33.84C65.9074 34.6848 66.3451 35.7533 66.4094 36.8754C66.4738 37.9976 66.161 39.109 65.521 40.033C65.064 40.744 63.7451 39.982 64.3031 39.221V39.22Z" fill="#353434"/>
<path d="M22.073 232.256C22.1062 231.721 22.0252 231.185 21.8355 230.683C21.6457 230.181 21.3515 229.726 20.9723 229.347C20.5931 228.968 20.1376 228.673 19.636 228.484C19.1344 228.294 18.5982 228.213 18.063 228.246C17.1831 228.4 16.2794 228.348 15.423 228.094C13.697 227.333 13.038 225.353 12.479 223.678C11.667 221.242 11.0581 220.078 8.01211 220.836C7.20011 221.036 6.6921 221.445 5.8301 221.136C3.2921 220.172 4.81505 215.806 0.957053 216.517C-0.00694716 216.717 -0.412953 215.248 0.551047 215.045C1.13624 214.891 1.74791 214.865 2.34389 214.97C2.93988 215.076 3.50602 215.309 4.00307 215.654C4.96707 216.365 5.0691 217.227 5.6271 218.141C5.6781 219.105 6.33805 219.511 7.55605 219.359C7.8162 219.204 8.08764 219.068 8.36806 218.953C8.92606 218.902 9.23111 218.598 9.84011 218.653C10.367 218.711 10.8752 218.882 11.3306 219.153C11.786 219.425 12.1778 219.79 12.48 220.226C13.444 221.393 13.698 222.815 14.256 224.236C14.814 225.657 15.373 226.672 17.098 226.825C17.859 226.876 18.5701 226.625 19.3311 226.725C20.605 226.955 21.7494 227.646 22.5453 228.667C23.3412 229.688 23.7328 230.967 23.645 232.258C23.545 233.273 22.021 233.273 22.072 232.258L22.073 232.256Z" fill="#282828"/>
<path d="M503.615 311.998C496.458 297.633 495.341 281.442 491.129 266.163C490.063 262.255 488.997 257.686 486.053 254.742C481.739 250.428 476.253 253.473 474.48 258.549C473.16 262.407 473.11 266.873 472.856 270.934C472.602 275.299 472.399 279.664 472.145 284.034C471.587 293.374 470.622 302.764 467.475 311.646C467.175 312.56 465.699 312.154 466.003 311.24C469.303 301.9 470.216 292.003 470.723 282.156C470.977 277.334 471.18 272.461 471.535 267.639C471.835 263.781 471.992 259.569 473.819 256.066C475.24 253.325 477.981 251.092 481.179 251.092C484.479 251.092 487.219 253.376 488.894 256.016C491.077 259.516 492.094 263.934 493.107 267.893C494.224 272.309 495.137 276.776 496.051 281.242C498.081 291.495 500.162 301.799 504.883 311.242C505.391 312.105 504.071 312.866 503.614 312.003L503.615 311.998Z" fill="#4C4C4C"/>
<path d="M496.662 249.057C497.677 247.585 495.596 245.605 494.378 247.23C493.211 248.753 495.393 250.275 496.611 249.108C497.322 248.448 498.388 249.514 497.677 250.174C497.137 250.666 496.446 250.96 495.717 251.006C494.988 251.052 494.265 250.848 493.667 250.428C493.352 250.201 493.086 249.911 492.888 249.576C492.69 249.241 492.563 248.869 492.516 248.483C492.468 248.097 492.5 247.706 492.611 247.333C492.722 246.96 492.908 246.614 493.159 246.317C493.386 245.994 493.677 245.722 494.014 245.518C494.351 245.313 494.727 245.18 495.118 245.128C495.509 245.076 495.906 245.105 496.285 245.213C496.665 245.322 497.017 245.508 497.321 245.759C497.884 246.256 498.254 246.936 498.366 247.679C498.477 248.421 498.323 249.18 497.93 249.82C497.422 250.632 496.103 249.871 496.661 249.059L496.662 249.057Z" fill="#4C4C4C"/>
<path d="M485.444 242.306C486.256 241.139 484.48 240.073 483.718 241.291C482.906 242.611 485.19 244.083 485.951 242.611C486.408 241.748 487.677 242.511 487.271 243.372C487.1 243.688 486.866 243.965 486.583 244.186C486.3 244.407 485.975 244.568 485.628 244.658C485.28 244.749 484.918 244.767 484.563 244.711C484.209 244.656 483.869 244.528 483.566 244.336C482.906 243.972 482.418 243.362 482.209 242.638C481.999 241.915 482.086 241.138 482.449 240.478C482.805 239.88 483.377 239.441 484.047 239.252C484.716 239.064 485.433 239.139 486.049 239.463C486.62 239.833 487.024 240.411 487.176 241.075C487.327 241.738 487.214 242.435 486.861 243.016C486.201 243.879 484.881 243.116 485.44 242.305L485.444 242.306Z" fill="#4C4C4C"/>
<path d="M489.86 231.14C490.266 229.973 488.997 228.754 487.982 229.719C486.967 230.684 488.134 232.054 489.302 231.648C490.216 231.348 490.622 232.815 489.708 233.12C487.069 233.983 484.835 230.633 486.916 228.653C487.354 228.206 487.937 227.93 488.561 227.875C489.184 227.82 489.807 227.99 490.316 228.353C490.809 228.704 491.175 229.206 491.358 229.783C491.541 230.361 491.532 230.982 491.331 231.553C490.976 232.467 489.504 232.111 489.859 231.147L489.86 231.14Z" fill="#4C4C4C"/>
<path d="M470.47 244.693C470.622 244.593 470.419 244.744 470.37 244.845V244.997H470.17C470.013 245.006 469.859 245.04 469.713 245.097C469.887 244.85 470.073 244.613 470.271 244.386V245.604C470.097 245.357 469.911 245.12 469.713 244.893C470.099 245.052 470.524 245.086 470.931 244.993C471.845 244.693 472.251 246.16 471.337 246.465C470.672 246.687 469.947 246.651 469.307 246.365C469.007 246.213 468.749 246.01 468.749 245.654V244.436C468.746 244.271 468.8 244.111 468.902 243.981C469.003 243.852 469.146 243.761 469.307 243.725C470.119 243.525 471.084 243.425 471.591 244.233C471.704 244.377 471.785 244.545 471.826 244.724C471.867 244.902 471.869 245.088 471.83 245.268C471.791 245.447 471.713 245.616 471.602 245.761C471.49 245.907 471.348 246.026 471.185 246.111C471.008 246.209 470.8 246.238 470.603 246.191C470.405 246.144 470.233 246.025 470.119 245.857C470.027 245.652 470.013 245.422 470.078 245.207C470.143 244.993 470.284 244.809 470.474 244.69L470.47 244.693Z" fill="#4C4C4C"/>
<path d="M385.704 42.624C385.45 42.724 386.004 45.263 385.755 45.872C385.561 46.2392 385.278 46.5522 384.932 46.7827C384.586 47.0132 384.189 47.1538 383.775 47.192C382.703 47.2933 381.633 46.9849 380.78 46.329C379.866 45.771 377.68 43.842 377.024 45.974C376.872 46.431 377.379 47.548 377.224 48.157C376.767 50.187 374.838 50.086 373.468 49.02C373.022 48.6007 372.614 48.1422 372.25 47.65C371.742 46.432 370.981 46.178 370.017 46.889C370.02 47.1836 369.969 47.4763 369.865 47.752C369.357 48.513 369.104 49.021 368.088 48.97C367.124 48.919 367.124 47.397 368.088 47.447C368.037 47.447 369.154 45.163 369.763 44.909C370.129 44.7912 370.518 44.7619 370.897 44.8236C371.277 44.8853 371.636 45.0363 371.946 45.264C372.38 45.5467 372.773 45.8883 373.113 46.279C373.874 47.04 373.824 48.157 375.042 47.396C376.209 46.685 375.242 45.569 376.057 44.554C377.377 42.879 379.61 43.793 381.031 44.706C381.843 45.214 383.873 47.041 384.381 44.351C384.432 43.996 384.127 43.437 384.127 43.082C384.07 42.7539 384.124 42.4163 384.28 42.1222C384.437 41.8282 384.686 41.5945 384.99 41.458C385.802 40.849 386.564 42.169 385.701 42.625L385.704 42.624Z" fill="#363636"/>
<path d="M438.797 161.348C438.188 168.454 437.579 175.56 436.919 182.666C436.912 182.863 436.829 183.05 436.686 183.187C436.544 183.324 436.355 183.4 436.158 183.4C435.96 183.4 435.771 183.324 435.629 183.187C435.487 183.05 435.403 182.863 435.396 182.666C435.396 182.514 435.345 182.311 435.345 182.158C435.245 181.194 436.766 181.194 436.868 182.158C436.868 182.31 436.919 182.513 436.919 182.666H435.396C436.005 175.56 436.614 168.454 437.274 161.348C437.374 160.384 438.898 160.333 438.797 161.348Z" fill="#363636"/>
<path d="M437.628 161.905C435.496 161.448 431.791 160.788 430.167 162.565C428.695 164.139 429.05 167.235 428.847 169.365C428.492 173.629 428.136 177.892 427.781 182.105C427.681 183.069 426.157 183.069 426.258 182.105C426.766 176.014 426.816 169.618 427.832 163.578C428.593 158.858 434.481 159.72 438.032 160.431C438.996 160.631 438.59 162.106 437.626 161.903L437.628 161.905Z" fill="#363636"/>
<path d="M424.635 133.279C423.011 149.518 422.451 165.847 422.96 182.159C423.011 183.123 421.488 183.123 421.437 182.159C420.929 165.847 421.489 149.518 423.112 133.279C423.212 132.315 424.736 132.264 424.635 133.279Z" fill="#363636"/>
<path d="M422.808 133.278C420.727 133.578 418.189 133.578 416.26 134.293C413.671 135.207 414.077 139.876 413.824 142.262C413.367 146.881 413.063 151.5 412.758 156.119C412.2 165.712 411.997 175.306 411.794 184.899C411.787 185.096 411.704 185.283 411.561 185.42C411.419 185.557 411.23 185.633 411.033 185.633C410.835 185.633 410.646 185.557 410.504 185.42C410.362 185.283 410.278 185.096 410.271 184.899C410.525 173.834 410.779 162.718 411.54 151.653C411.895 146.476 412.149 141.248 412.961 136.121C413.672 131.756 418.9 132.314 422.402 131.756C423.366 131.705 423.772 133.126 422.808 133.279V133.278Z" fill="#363636"/>
<path d="M409.916 123.737C408.19 143.025 406.447 162.296 404.688 181.55C404.588 182.514 403.064 182.514 403.165 181.55C404.891 162.262 406.634 142.991 408.393 123.737C408.444 122.773 409.966 122.773 409.916 123.737Z" fill="#363636"/>
<path d="M408.951 124.497C406.511 124.024 404.015 123.904 401.54 124.142C399.459 124.342 397.987 124.751 397.885 126.984C397.834 127.745 397.834 128.558 397.834 129.319C397.682 133.126 397.534 136.933 397.326 140.74C396.666 155.308 395.905 169.824 395.143 184.392C395.092 185.356 393.569 185.356 393.62 184.392C394.432 168.657 395.244 152.973 395.955 137.238C396.107 133.938 396.255 130.69 396.361 127.391C396.412 125.919 396.412 124.447 397.782 123.483C399.051 122.62 401.03 122.569 402.502 122.519C404.798 122.385 407.102 122.556 409.354 123.027C410.318 123.227 409.912 124.702 408.948 124.499L408.951 124.497Z" fill="#363636"/>
<path d="M449.71 118.863C451.385 122.163 453.01 125.463 454.684 128.763C455.141 129.626 453.821 130.387 453.364 129.524C451.689 126.224 450.064 122.924 448.39 119.624C447.984 118.761 449.304 117.949 449.71 118.863Z" fill="#363636"/>
<path d="M449.507 120.386C448.823 123.31 447.201 125.931 444.888 127.847C444.127 128.456 443.061 127.39 443.822 126.781C445.924 125.049 447.403 122.679 448.035 120.03C448.058 119.933 448.1 119.842 448.159 119.762C448.217 119.682 448.291 119.613 448.376 119.562C448.461 119.51 448.555 119.475 448.653 119.46C448.752 119.444 448.852 119.448 448.949 119.472C449.045 119.495 449.136 119.537 449.217 119.595C449.297 119.654 449.365 119.728 449.417 119.813C449.469 119.897 449.503 119.992 449.519 120.09C449.534 120.188 449.53 120.288 449.507 120.385V120.386Z" fill="#363636"/>
<path d="M450.572 121.098C450.882 143.343 447.975 165.517 441.943 186.931C441.883 187.12 441.753 187.278 441.579 187.372C441.406 187.467 441.202 187.49 441.011 187.437C440.821 187.385 440.658 187.26 440.557 187.09C440.456 186.92 440.426 186.717 440.471 186.525C446.465 165.243 449.354 143.206 449.049 121.098C449.056 120.901 449.14 120.714 449.282 120.577C449.424 120.44 449.613 120.364 449.811 120.364C450.008 120.364 450.197 120.44 450.339 120.577C450.482 120.714 450.565 120.901 450.572 121.098Z" fill="#363636"/>
<path d="M440.116 188.249C428.239 187.132 416.327 186.54 404.382 186.472C393.266 186.421 381.236 185.964 370.982 190.99C370.119 191.396 369.358 190.127 370.221 189.67C380.17 184.797 391.539 184.899 402.402 184.949C414.99 184.949 427.561 185.541 440.115 186.726C441.079 186.826 441.079 188.35 440.115 188.249H440.116Z" fill="#363636"/>
<path d="M377.227 185.762C374.49 187.414 371.878 189.263 369.41 191.295L369.258 190.077C371.339 191.65 373.369 193.224 375.451 194.797C376.212 195.406 375.451 196.726 374.69 196.117C372.609 194.543 370.579 192.97 368.497 191.396C368.399 191.333 368.315 191.248 368.253 191.149C368.191 191.05 368.151 190.939 368.136 190.823C368.122 190.706 368.133 190.588 368.169 190.477C368.205 190.366 368.265 190.264 368.345 190.178C370.898 188.057 373.613 186.139 376.466 184.442C376.641 184.346 376.846 184.323 377.038 184.376C377.23 184.43 377.393 184.557 377.493 184.73C377.592 184.902 377.62 185.107 377.57 185.3C377.521 185.493 377.398 185.659 377.227 185.762Z" fill="#161616"/>
<path d="M445.852 146.831L443.568 149.572C443.482 149.652 443.38 149.712 443.269 149.748C443.158 149.784 443.04 149.795 442.923 149.781C442.807 149.766 442.696 149.726 442.597 149.664C442.498 149.602 442.413 149.518 442.35 149.42C438.289 141.451 434.279 133.431 430.168 125.462C429.102 123.432 427.63 125.107 426.107 125.662C425.146 125.985 424.1 125.949 423.163 125.562C420.727 124.648 419.102 122.11 417.986 119.877C416.159 116.07 414.534 112.111 412.758 108.253C412.301 107.187 411.794 106.121 411.337 105.106C411.118 104.272 410.757 103.482 410.271 102.771C408.698 101.35 404.84 104.598 403.52 105.41C401.337 106.73 398.19 109.674 395.348 108.91C393.216 108.352 392.201 106.017 391.592 104.088C388.648 95.408 384.892 87.541 379.105 80.388C378.989 80.2665 378.916 80.1102 378.897 79.9431C378.878 79.776 378.915 79.6073 379.001 79.4631C379.088 79.3188 379.219 79.207 379.375 79.1449C379.532 79.0827 379.704 79.0736 379.866 79.119C382.471 79.9849 384.909 81.2897 387.074 82.977C387.785 83.535 386.874 84.55 386.16 84.195C384.18 83.231 382.15 82.215 380.171 81.251C380.526 81.099 380.932 80.951 381.288 80.794C380.679 83.84 380.07 86.885 379.511 89.93C379.311 90.894 377.836 90.488 378.039 89.524C378.648 86.479 379.257 83.433 379.816 80.388C379.849 80.2769 379.906 80.1745 379.984 80.0885C380.061 80.0025 380.157 79.9351 380.265 79.8912C380.372 79.8473 380.488 79.8281 380.603 79.835C380.719 79.8419 380.832 79.8747 380.933 79.931C382.913 80.895 384.943 81.911 386.922 82.875L386.008 84.093C384.052 82.5447 381.834 81.3593 379.46 80.593C379.714 80.187 379.968 79.73 380.221 79.324C384.663 84.7862 388.272 90.8754 390.931 97.394C391.642 99.12 392.251 100.894 392.809 102.673C393.266 104.094 393.976 107.14 395.854 107.444C397.986 107.799 400.727 105.363 402.454 104.297C404.181 103.231 405.854 102.064 407.631 101.097C409.661 100.031 410.931 100.437 411.945 102.417C413.874 106.224 415.445 110.284 417.224 114.193C418.544 117.137 420.219 123.076 423.824 124.04C426.26 124.7 428.494 121.045 430.676 123.177C431.945 124.395 432.605 126.677 433.366 128.202C434.533 130.486 435.65 132.719 436.818 135.002C439.102 139.519 441.437 144.037 443.718 148.554L442.5 148.402L444.784 145.661C445.444 145.001 446.51 146.067 445.85 146.828L445.852 146.831Z" fill="#363636"/>
<path d="M224.902 20.696C229.876 17.955 232.008 11.001 228.861 6.078C225.661 1.053 217.897 0.138998 213.38 3.845C208.761 7.703 208.71 15.621 213.126 19.631C217.694 23.844 225.359 22.731 229.115 18.057C229.724 17.296 230.79 18.357 230.181 19.123C228.4 21.2172 226.005 22.6974 223.336 23.3535C220.666 24.0095 217.858 23.8082 215.309 22.778C210.335 20.697 207.746 15.317 208.409 10.088C208.681 7.52046 209.828 5.12475 211.659 3.30363C213.489 1.48251 215.89 0.347013 218.459 0.0880094C223.586 -0.520991 229.068 2.017 230.996 6.988C232.007 9.71008 232.021 12.7023 231.037 15.4339C230.052 18.1656 228.131 20.4603 225.616 21.911C224.804 22.469 224.042 21.15 224.905 20.693L224.902 20.696Z" fill="#353434"/>
<path d="M202.872 30.037C205.004 26.078 199.522 21.713 196.781 25.976C194.345 29.732 200.334 32.576 202.263 29.076C202.72 28.213 204.039 28.976 203.583 29.837C202.95 30.871 201.957 31.6347 200.796 31.9814C199.634 32.328 198.385 32.2331 197.289 31.715C196.695 31.4589 196.165 31.0733 195.739 30.5864C195.313 30.0994 195.001 29.5235 194.826 28.9006C194.651 28.2776 194.617 27.6235 194.727 26.9858C194.837 26.3482 195.088 25.7432 195.462 25.215C195.799 24.6179 196.257 24.0971 196.805 23.6853C197.353 23.2735 197.981 22.9798 198.648 22.8224C199.316 22.6651 200.009 22.6476 200.683 22.7711C201.358 22.8946 202 23.1564 202.568 23.54C203.675 24.3568 204.453 25.5432 204.76 26.8841C205.067 28.225 204.884 29.6317 204.243 30.849C203.685 31.661 202.365 30.9 202.873 30.037H202.872Z" fill="#353434"/>
<path d="M229.572 413.97H109.783C109.586 413.963 109.399 413.879 109.262 413.737C109.125 413.595 109.049 413.406 109.049 413.208C109.049 413.011 109.125 412.822 109.262 412.68C109.399 412.537 109.586 412.454 109.783 412.447H229.572C229.774 412.447 229.968 412.527 230.111 412.67C230.253 412.813 230.334 413.007 230.334 413.208C230.334 413.41 230.253 413.604 230.111 413.747C229.968 413.89 229.774 413.97 229.572 413.97Z" fill="#161616"/>
<path d="M84.7081 413.97H61.8691C61.6719 413.963 61.4852 413.879 61.3482 413.737C61.2112 413.595 61.1347 413.406 61.1347 413.208C61.1347 413.011 61.2112 412.822 61.3482 412.68C61.4852 412.537 61.6719 412.454 61.8691 412.447H84.71C84.9072 412.454 85.0939 412.537 85.2309 412.68C85.3679 412.822 85.4444 413.011 85.4444 413.208C85.4444 413.406 85.3679 413.595 85.2309 413.737C85.0939 413.879 84.9072 413.963 84.71 413.97H84.7081Z" fill="#161616"/>
<path d="M344.64 437.015H264.952C264.755 437.008 264.568 436.924 264.431 436.782C264.294 436.64 264.218 436.451 264.218 436.253C264.218 436.056 264.294 435.867 264.431 435.725C264.568 435.583 264.755 435.499 264.952 435.492H344.642C344.839 435.499 345.026 435.583 345.163 435.725C345.3 435.867 345.376 436.056 345.376 436.253C345.376 436.451 345.3 436.64 345.163 436.782C345.026 436.924 344.839 437.008 344.642 437.015H344.64Z" fill="#161616"/>
<path d="M265.965 430.924H196.936C196.739 430.917 196.552 430.833 196.415 430.691C196.278 430.549 196.202 430.36 196.202 430.162C196.202 429.965 196.278 429.776 196.415 429.634C196.552 429.492 196.739 429.408 196.936 429.401H265.967C266.164 429.408 266.351 429.492 266.488 429.634C266.625 429.776 266.701 429.965 266.701 430.162C266.701 430.36 266.625 430.549 266.488 430.691C266.351 430.833 266.164 430.917 265.967 430.924H265.965Z" fill="#161616"/>
<path d="M451.486 426.761H430.675C430.38 426.749 430.102 426.623 429.898 426.41C429.694 426.197 429.58 425.914 429.58 425.619C429.58 425.324 429.694 425.041 429.898 424.828C430.102 424.615 430.38 424.489 430.675 424.477H451.486C451.781 424.489 452.059 424.615 452.263 424.828C452.467 425.041 452.581 425.324 452.581 425.619C452.581 425.914 452.467 426.197 452.263 426.41C452.059 426.623 451.781 426.749 451.486 426.761Z" fill="#161616"/>
<path d="M423.569 426.761H416.463C416.168 426.749 415.89 426.623 415.686 426.41C415.482 426.197 415.368 425.914 415.368 425.619C415.368 425.324 415.482 425.041 415.686 424.828C415.89 424.615 416.168 424.489 416.463 424.477H423.569C423.864 424.489 424.142 424.615 424.346 424.828C424.55 425.041 424.664 425.324 424.664 425.619C424.664 425.914 424.55 426.197 424.346 426.41C424.142 426.623 423.864 426.749 423.569 426.761Z" fill="#161616"/>
<path d="M169.728 257.788C186.528 278.142 203.312 298.479 220.08 318.799L141.05 338.442C140.187 327.529 139.984 305.242 152.115 281.948C156.749 273.062 162.686 264.919 169.728 257.788Z" fill="#5C2BDE"/>
<path d="M225.003 322.91C198.403 329.61 171.789 336.293 145.161 342.959C146.03 355.502 150.926 367.43 159.119 376.967C181.046 358.948 203.008 340.929 225.003 322.91Z" fill="#5C2BDE"/>
<path d="M228.912 413.21C277.773 413.21 317.383 372.6 317.383 322.505C317.383 272.41 277.773 231.8 228.912 231.8C180.051 231.8 140.441 272.41 140.441 322.505C140.441 372.6 180.051 413.21 228.912 413.21Z" stroke="#5C2BDE" stroke-width="3" stroke-miterlimit="10"/>
<path d="M227.796 320.576C227.73 320.535 227.656 320.508 227.579 320.496C227.502 320.484 227.424 320.487 227.348 320.506C227.273 320.525 227.202 320.558 227.139 320.604C227.077 320.651 227.024 320.709 226.984 320.776C226.933 320.576 226.933 320.37 226.884 320.167C226.935 320.267 227.084 320.218 227.138 320.167C227.231 320.138 227.33 320.129 227.427 320.139C227.524 320.15 227.618 320.179 227.703 320.227C227.788 320.274 227.863 320.338 227.923 320.415C227.983 320.492 228.027 320.581 228.052 320.675C228.098 320.863 228.072 321.062 227.978 321.232C227.883 321.401 227.728 321.529 227.544 321.589C227.248 321.693 226.928 321.709 226.622 321.638C226.316 321.566 226.037 321.408 225.818 321.183C225.71 321.069 225.627 320.933 225.574 320.786C225.52 320.638 225.497 320.481 225.507 320.324C225.516 320.167 225.557 320.014 225.628 319.873C225.699 319.733 225.797 319.609 225.918 319.508C226.292 319.117 226.804 318.887 227.344 318.869C227.885 318.85 228.411 319.044 228.811 319.408C228.893 319.473 228.96 319.554 229.01 319.646C229.059 319.738 229.089 319.839 229.099 319.943C229.108 320.047 229.097 320.152 229.064 320.251C229.032 320.35 228.98 320.442 228.912 320.521C228.843 320.599 228.76 320.664 228.666 320.709C228.572 320.755 228.47 320.781 228.366 320.786C228.261 320.791 228.157 320.775 228.059 320.739C227.961 320.702 227.872 320.647 227.796 320.575V320.576Z" fill="#161616"/>
<path d="M174.3 251.748C190.5 275.314 207.9 298.033 226.429 319.815C227.038 320.576 225.972 321.642 225.363 320.881C206.737 299.007 189.253 276.187 172.981 252.51C172.423 251.698 173.742 250.937 174.301 251.749L174.3 251.748Z" fill="#161616"/>
<path d="M227.186 321.54C198.559 326.667 170.134 332.724 141.912 339.711C141.72 339.757 141.517 339.726 141.347 339.625C141.177 339.524 141.052 339.361 141 339.171C140.947 338.98 140.97 338.776 141.065 338.603C141.159 338.429 141.317 338.299 141.506 338.239C169.727 331.285 198.152 325.228 226.78 320.068C227.744 319.916 228.15 321.388 227.186 321.54Z" fill="#161616"/>
<path d="M227.288 321.286C205.614 341.133 183.281 360.235 160.288 378.592C159.527 379.201 158.461 378.135 159.222 377.526C182.165 359.203 204.498 340.101 226.222 320.22C226.933 319.56 228.049 320.626 227.288 321.286Z" fill="#161616"/>
<path opacity="0.21" d="M228.861 232.004C226.983 240.379 225.714 252.304 230.333 264.489C240.84 292.304 271.345 293.675 282.918 316.364C289.212 328.698 290.785 349.103 270.888 384.633V402.551C277.678 398.769 283.941 394.11 289.516 388.694C313.216 365.494 316.875 335.194 317.636 323.673C317.585 315.349 316.418 288.295 296.47 264.134C291.952 258.652 275.913 239.872 248.605 233.834C242.122 232.425 235.492 231.811 228.861 232.004Z" fill="#7743FF"/>
<path d="M379.102 374.328C375.602 383.16 372.102 391.941 368.646 400.773C370.727 405.341 373.925 412.092 378.341 420.163C384.127 430.721 386.868 434.274 385.955 435.34C384.635 436.863 376.055 433.056 342.755 408.134C344.836 402.348 346.968 396.51 349.049 390.572C352.094 381.943 355.055 373.399 357.932 364.939C364.943 368.085 372.002 371.232 379.102 374.328Z" fill="#363636"/>
<path d="M285.506 219.613C279.872 229.206 283.882 244.078 284.44 246.058C287.54 257.58 294.54 258.697 320.224 283.01C336.314 298.288 340.933 304.481 344.334 311.282C348.021 318.787 350.374 326.877 351.288 335.189C349.207 347.371 347.126 359.502 345.045 371.689C351.961 376.207 359.48 379.727 367.379 382.145C373.184 383.911 379.153 385.084 385.195 385.645C389.865 373.818 396.565 351.992 392.961 325.445C388.596 293.112 371.49 271.945 357.278 254.384C338.615 231.518 315.446 212.738 289.212 199.213C290.244 204.237 289.893 209.447 288.197 214.288C287.487 216.151 286.585 217.936 285.506 219.613Z" fill="#5C2BDE"/>
<path opacity="0.2" d="M293.933 205.862C299.164 220.168 306.173 233.759 314.795 246.316C335.352 276.216 350.529 278.649 362.66 306.416C368.156 319.394 371.516 333.175 372.609 347.226C373.646 358.908 373.219 370.673 371.34 382.249C367.854 382.126 364.395 381.58 361.04 380.625C355.13 378.923 349.658 375.962 345 371.945C345.863 367.834 347.132 361.745 348.553 354.281C350.482 343.926 351.446 338.698 351.446 334.993C351.446 324.08 346.827 315.857 343.071 309.309C341.294 306.209 336.117 297.635 317.996 281.037C298.86 263.525 290.896 260.48 285.866 247.637C283.857 242.639 282.874 237.288 282.973 231.902C283.426 218.551 290.938 209.212 293.933 205.862Z" fill="#6D6C6C"/>
<path opacity="0.27" d="M283.02 236.063C293.425 244.793 308.298 257.838 325.403 274.588C350.224 298.952 354.64 306.058 356.568 309.611C361.948 319.511 371.186 342.045 362.05 379.657C359.055 378.439 355.959 377.068 352.711 375.495C350.122 374.226 347.635 372.906 345.3 371.637C347.33 359.76 349.36 347.865 351.391 335.954C351.201 329.567 349.895 323.263 347.533 317.326C345.464 312.398 342.768 307.758 339.513 303.52C335.351 297.835 331.341 293.977 323.474 286.52C317.18 280.53 311.089 274.236 304.541 268.552C292.765 258.352 287.486 255.558 284.641 247.691C283.321 243.964 282.77 240.009 283.02 236.063Z" fill="#6D6C6C"/>
<path d="M323.221 373.212L300.075 391.028C310.328 417.016 310.328 423.767 308.247 424.934C304.796 426.914 293.476 414.681 287.03 405.697C282.444 399.248 278.74 392.215 276.016 384.785C279.163 380.775 282.767 376.613 286.777 372.349C291.852 366.961 297.223 361.86 302.867 357.071C309.616 362.502 316.416 367.832 323.221 373.212Z" fill="#363636"/>
<path d="M244.038 219.618C239.521 231.597 242.262 243.17 242.972 246.063C248.149 267.584 267.387 285.35 274.188 291.542C285.812 302.201 295.456 307.531 300.836 321.742C302.345 325.639 303.334 329.718 303.78 333.873C300.075 342.35 296.369 350.809 292.664 359.252C296.732 368.192 303.131 375.871 311.191 381.484C315.116 384.163 319.385 386.298 323.883 387.83C331.598 379.962 352.511 356.614 351.394 325.398C350.531 301.44 336.979 282.152 326.523 267.179C316.016 252.205 313.323 254.033 300.078 234.897C288.607 218.297 286.424 210.736 276.778 207.386C267.083 203.986 252.871 205.863 246.628 214.286C245.544 215.947 244.674 217.739 244.038 219.618Z" fill="#5C2BDE"/>
<path opacity="0.24" d="M267.641 217.333C266.761 224.665 267.225 232.095 269.012 239.26C277.133 270.679 306.877 273.42 321.191 307.428C323.983 314.077 330.48 330.168 325.353 348.796C321.394 363.313 312.153 372.754 306.928 377.322C303.696 375.613 300.86 373.244 298.604 370.368C295.914 366.916 294.118 362.854 293.376 358.541C296.976 349.861 300.584 341.131 304.137 332.451C303.239 327.091 301.473 321.914 298.909 317.122C294.544 308.899 289.265 304.737 282.463 298.595C269.977 287.378 262.008 280.271 255.104 270.475C250.739 264.232 244.394 255.045 242.313 241.594C241.003 233.012 241.575 224.249 243.988 215.91C251.855 216.42 259.773 216.876 267.641 217.333Z" fill="#6D6C6C"/>
<path opacity="0.25" d="M241.804 233.627C247.854 244.745 255.087 255.177 263.376 264.742C283.882 288.342 297.79 293.268 307.332 311.442C311.443 319.259 315.2 332.151 310.581 352.861C304.744 355.196 298.856 357.531 293.019 359.916C296.724 351.186 300.379 342.506 304.084 333.776C303.64 327.718 301.928 321.822 299.059 316.468C295.859 310.58 292.308 307.484 284.492 300.378C271.549 288.602 265.052 282.714 262.412 279.77C256.372 273.121 249.773 265.659 245.612 254.137C243.195 247.564 241.908 240.629 241.804 233.627Z" fill="#6D6C6C"/>
<path d="M365.35 148.861C367.245 144.522 370.008 140.618 373.471 137.39C378.953 132.365 386.617 128.761 387.836 130.233C388.344 130.842 388.293 132.974 379.055 143.176" fill="white"/>
<path d="M365.35 148.861C367.245 144.522 370.008 140.618 373.471 137.39C378.953 132.365 386.617 128.761 387.836 130.233C388.344 130.842 388.293 132.974 379.055 143.176" stroke="#5C2BDE" stroke-width="2" stroke-miterlimit="10"/>
<path d="M384.486 140.536C387.736 142.465 390.308 145.356 391.846 148.809C392.557 150.535 393.47 152.768 392.81 155.357C391.643 159.824 386.262 161.702 385.81 161.905C383.627 162.666 383.069 162.105 381.495 163.022C378.957 164.494 379.059 166.474 377.181 168.301C373.323 172.006 365.507 170.534 365.151 168.961C364.951 168.098 367.181 167.286 366.978 165.712C366.878 164.748 365.912 164.342 365.252 163.733C361.699 160.484 365.1 150.993 365.709 149.419C366.476 147.324 367.463 145.317 368.653 143.43" fill="white"/>
<path d="M384.486 140.536C387.736 142.465 390.308 145.356 391.846 148.809C392.557 150.535 393.47 152.768 392.81 155.357C391.643 159.824 386.262 161.702 385.81 161.905C383.627 162.666 383.069 162.105 381.495 163.022C378.957 164.494 379.059 166.474 377.181 168.301C373.323 172.006 365.507 170.534 365.151 168.961C364.951 168.098 367.181 167.286 366.978 165.712C366.878 164.748 365.912 164.342 365.252 163.733C361.699 160.484 365.1 150.993 365.709 149.419C366.476 147.324 367.463 145.317 368.653 143.43" stroke="#5C2BDE" stroke-width="2" stroke-miterlimit="10"/>
<path d="M393.674 154.697C393.13 156.242 392.271 157.658 391.152 158.855C390.033 160.052 388.679 161.004 387.174 161.651C384.027 162.92 381.692 161.245 381.641 157.895C381.648 157.698 381.732 157.511 381.874 157.374C382.016 157.237 382.205 157.161 382.402 157.161C382.6 157.161 382.789 157.237 382.931 157.374C383.074 157.511 383.157 157.698 383.164 157.895C383.215 161.803 387.072 160.382 389.001 158.809C390.462 157.625 391.569 156.062 392.201 154.291C392.556 153.377 394.028 153.733 393.673 154.697H393.674Z" fill="#7743FF"/>
<path d="M389.866 150.536C388.343 153.378 386.313 156.525 383.166 157.693C380.324 158.759 378.648 157.033 378.344 154.343C378.244 153.379 379.765 153.379 379.867 154.343C380.324 158.353 384.232 155.561 385.603 154.143C386.789 152.837 387.781 151.367 388.547 149.778C389.004 148.915 390.324 149.678 389.867 150.539L389.866 150.536Z" fill="#7743FF"/>
<path d="M385.298 143.684C384.448 145.754 383.411 147.742 382.198 149.623C381.335 150.892 380.117 152.723 378.442 153.023C374.483 153.784 375.752 148.15 376.513 146.223C376.868 145.309 378.34 145.715 377.985 146.629C377.63 147.492 376.868 149.268 377.173 150.229C378.036 153.021 380.373 149.569 380.878 148.859C382.091 146.978 383.128 144.99 383.978 142.92C384.384 142.006 385.704 142.768 385.298 143.681V143.684Z" fill="#7743FF"/>
<path d="M384.537 141.399C383.014 140.638 381.137 142.008 380.07 143.023C379.05 144.069 378.256 145.313 377.735 146.678C377.38 147.592 375.908 147.186 376.263 146.272C377.532 143.125 381.288 138.1 385.298 140.079C386.161 140.485 385.398 141.805 384.537 141.399Z" fill="#7743FF"/>
<path d="M274.441 125.817C272.817 130.639 275.304 134.75 282.258 147.135C293.932 167.743 294.643 169.57 297.333 172.819C303.678 180.433 307.282 184.747 313.933 187.539C326.064 192.615 339.515 188.148 346.875 185.356C352.338 183.246 357.467 180.357 362.102 176.778C364.335 174.951 366.061 173.53 367.178 172.667C369.513 170.789 370.578 169.977 371.492 168.353C372.074 167.3 372.453 166.146 372.609 164.953C373.37 159.522 367.99 154.953 367.584 154.598C374.03 156.121 376.264 155.816 376.67 154.898C377.634 152.868 370.63 145.406 365.706 147.081C363.371 147.842 362.206 150.481 361.341 152.411C360.116 155.165 359.677 158.204 360.072 161.192C356.046 163.965 351.61 166.089 346.926 167.486C338.646 169.86 329.881 169.964 321.547 167.786C318.958 163.624 314.747 156.822 309.619 148.346C295.61 125.099 291.904 117.739 285.458 117.637C280.635 117.594 275.864 121.604 274.441 125.817Z" fill="white" stroke="#5C2BDE" stroke-width="2" stroke-miterlimit="10"/>
<path d="M368.041 155.917C372.406 155.717 373.015 161.348 373.574 164.546C373.066 164.597 372.559 164.698 372.102 164.746C371.923 162.803 371.26 160.936 370.173 159.315C370.077 159.14 370.054 158.935 370.107 158.743C370.161 158.551 370.288 158.388 370.461 158.288C370.633 158.189 370.838 158.161 371.031 158.211C371.224 158.26 371.39 158.384 371.493 158.554C373.473 161.754 374.693 165.711 371.95 168.854L370.884 167.788C371.258 167.467 371.56 167.07 371.77 166.624C371.98 166.177 372.093 165.692 372.102 165.199C372.609 165.25 373.117 165.351 373.574 165.399C373.327 166.206 373.005 166.988 372.61 167.734C372.153 168.597 370.834 167.834 371.29 166.973C371.664 166.36 371.938 165.692 372.102 164.993C372.302 164.181 373.675 164.333 373.574 165.193C373.49 166.577 372.892 167.88 371.899 168.848C371.188 169.559 370.173 168.493 370.833 167.782C373.066 165.193 371.645 161.894 370.122 159.305C370.579 159.051 370.985 158.797 371.442 158.544C372.672 160.391 373.406 162.523 373.574 164.736C373.625 165.599 372.203 165.802 372.102 164.936C371.696 162.601 371.341 157.322 368.041 157.424C367.077 157.475 367.077 155.952 368.041 155.901V155.917Z" fill="white"/>
<path opacity="0.21" d="M282.209 119.726C286.696 131.746 292.233 143.346 298.756 154.394C307.08 168.555 311.446 175.662 318.956 179.418C334.386 187.082 358.192 181.905 366.212 167.236C368.233 163.424 369.263 159.165 369.207 154.851C371.704 155.843 374.468 155.933 377.024 155.105C383.524 152.516 384.13 142.822 387.582 142.923C389.866 143.023 391.541 147.339 392.15 148.912C393.074 150.836 393.392 152.996 393.064 155.105C392.252 158.705 388.445 161.551 383.674 162.465C381.781 163.352 380.076 164.592 378.649 166.12C376.974 167.947 376.517 169.369 374.741 170.231C373.37 170.837 371.843 170.997 370.376 170.688C366.877 173.529 363.198 176.14 359.361 178.505C348.905 184.905 336.266 192.616 321.952 189.976C316.826 188.954 311.979 186.842 307.74 183.783C303.121 180.683 298.147 176.017 288.706 159.013C283.671 149.933 279.147 140.579 275.154 130.995C274.74 129.928 274.548 128.788 274.592 127.644C274.636 126.501 274.913 125.378 275.408 124.346C276.062 123.066 277.028 121.972 278.217 121.165C279.405 120.357 280.778 119.862 282.209 119.726Z" fill="#7743FF"/>
<path opacity="0.22" d="M378.242 155.003C378.953 155.511 378.648 156.526 379.511 157.287C380.074 157.678 380.757 157.857 381.44 157.795C381.406 158.655 381.637 159.505 382.1 160.231C382.811 161.246 383.775 161.449 383.724 161.855C383.624 162.312 382.201 162.055 380.831 162.819C380.01 163.323 379.342 164.043 378.902 164.9C375.552 161.7 372.202 158.555 368.852 155.357C370.648 156.114 372.635 156.292 374.537 155.865C376.161 155.358 377.38 154.392 378.242 155.003Z" fill="#7743FF"/>
<path d="M274.849 115.868C278.249 119.268 280.026 123.126 283.478 130.842C287.959 140.166 290.874 150.163 292.107 160.434C293.731 175.458 289.924 178.859 292.97 190.026C294.848 196.796 298.194 203.069 302.77 208.4C296.379 214.828 288.625 219.737 280.081 222.765C261.25 229.365 244.703 224.389 239.271 222.465C234.754 210.283 230.287 198.101 225.771 185.965C225.72 175.665 225.314 166.88 224.908 160.078C223.893 143.835 222.218 131.4 221.152 123.837C219.934 114.954 218.665 107.493 217.701 102.011C226.961 102.487 236.183 103.538 245.313 105.158C267.438 109.219 272.666 113.685 274.849 115.868Z" fill="white" stroke="#5C2BDE" stroke-width="2" stroke-miterlimit="10"/>
<path opacity="0.19" d="M247.947 105.516C244.58 113.534 242.589 122.063 242.059 130.743C240.486 156.934 253.124 177.443 262.718 192.972C268.809 202.816 275.884 212.016 283.833 220.432C278.716 223.117 273.196 224.951 267.489 225.863C258.086 227.333 248.462 226.318 239.572 222.919C235.308 210.636 231.095 198.403 226.832 186.119C226.578 177.744 226.121 169.064 225.462 160.232C223.939 139.624 221.452 120.285 218.407 102.317L247.947 105.516Z" fill="#7743FF"/>
<path opacity="0.11" d="M238.861 103.939C233.876 116.571 231.626 130.117 232.261 143.683C234.697 189.721 271.142 217.583 277.436 222.256C272.467 224.035 267.273 225.112 262.006 225.456C254.608 225.925 247.19 224.925 240.18 222.512C235.51 210.229 230.79 197.996 226.12 185.712C226.12 174.494 225.714 162.512 224.75 149.826C223.533 133.977 221.483 118.203 218.609 102.569L238.861 103.939Z" fill="#6D6C6C"/>
<path d="M219.573 101.351C213.822 103.328 208.775 106.945 205.056 111.756C200.183 118.405 199.117 126.425 201.909 151.856C204.498 175.509 206.731 180.585 207.594 194.797C208.357 207.029 207.727 219.308 205.716 231.397L188.357 227.286C183.847 228.405 179.713 230.699 176.378 233.935C174.5 235.762 170.541 239.62 171.657 242.767C172.368 244.797 174.957 245.812 176.073 246.219C177.989 246.912 180.047 247.121 182.063 246.828C186.276 246.574 190.489 246.422 194.702 246.219C197.745 246.064 200.795 246.064 203.838 246.219C198.712 250.635 196.529 253.477 197.189 254.746C198.103 256.421 204.189 255.254 215.513 251.294C216.021 247.183 216.833 240.939 218.051 233.326C221.198 213.426 223.482 206.326 225.005 195.765C226.578 184.852 226.071 175.005 225.005 155.365C224.192 141.451 222.72 123.075 219.573 101.351Z" fill="white" stroke="#5C2BDE" stroke-width="2" stroke-miterlimit="10"/>
<path d="M196.021 239.464C192.113 237.84 188.052 238.753 184.296 240.428C181.039 241.696 178.045 243.554 175.464 245.91C174.753 246.57 173.687 245.504 174.398 244.844C177.366 242.153 180.831 240.066 184.598 238.702C188.405 237.129 192.516 236.418 196.475 238.042C197.287 238.342 196.881 239.819 196.018 239.463L196.021 239.464Z" fill="#7743FF"/>
<path d="M191.047 234.794C184.296 233.474 176.276 237.484 172.571 243.22C172.013 244.032 170.693 243.271 171.251 242.459C175.413 236.114 183.941 231.901 191.451 233.373C192.415 233.525 192.009 234.997 191.045 234.794H191.047Z" fill="#7743FF"/>
<path d="M185.209 231.291C182.519 231.391 180.184 232.56 177.849 233.829C176.986 234.286 176.225 232.966 177.088 232.509C179.677 231.139 182.265 229.87 185.209 229.768C186.173 229.717 186.173 231.24 185.209 231.291Z" fill="#7743FF"/>
<path opacity="0.16" d="M218.859 102.569C215.013 111.193 212.333 120.291 210.89 129.623C206.474 158.961 217.336 174.239 215.407 205.963C214.68 217.486 212.461 228.866 208.807 239.819C203.165 237.978 197.196 237.355 191.295 237.992C186.168 238.601 183.63 238.906 181.095 240.733C178.56 242.56 177.085 244.997 174.495 244.844C173.914 244.842 173.343 244.697 172.831 244.422C172.319 244.148 171.882 243.752 171.559 243.269C170.189 240.782 173.945 236.518 175.214 235.097C178.555 231.386 182.888 228.709 187.701 227.382L205.669 231.037C207.498 222.989 208.485 214.773 208.613 206.521C208.765 197.385 207.141 186.321 203.842 164.493C203.233 160.432 202.472 152.26 200.898 135.865C200.39 130.485 199.984 125.665 201.812 119.724C202.726 116.729 204.959 109.924 211.557 105.664C213.763 104.162 216.245 103.11 218.859 102.569Z" fill="#7743FF"/>
<path opacity="0.22" d="M207.746 245.91C206.712 248.517 204.993 250.797 202.772 252.51C200.996 253.83 197.899 255.454 197.341 254.794C196.63 253.982 199.32 249.515 203.483 247.282C204.809 246.57 206.254 246.105 207.746 245.91Z" fill="#7743FF"/>
<path opacity="0.4" d="M202.061 144.343C208.898 162.935 211.835 182.736 210.69 202.512C210.006 213.6 208.03 224.57 204.802 235.2C206.876 227.334 208.102 219.268 208.457 211.141C209.066 195.964 206.325 187.441 203.483 159.571C202.768 153.124 202.314 147.795 202.061 144.343Z" fill="#7743FF"/>
<path opacity="0.22" d="M191.807 233.626C191.907 233.017 186.833 230.682 181.807 231.799C175.056 233.322 171.907 240.428 171.351 241.799C174.42 238.13 178.553 235.505 183.178 234.287C187.899 233.22 191.755 234.134 191.807 233.626Z" fill="#7743FF"/>
<path d="M293.528 90.946C295.66 92.926 296.117 97.088 296.979 105.26C297.943 114.65 298.349 119.421 296.37 121.807C292.77 126.172 285 126.426 279.62 124.04C273.275 121.198 271.093 115.056 270.534 113.533C268.047 106.478 268.859 95.818 276.371 90.946C281.449 87.595 289.315 87.037 293.528 90.946Z" fill="#5C2BDE"/>
<path d="M282.563 98.357C281.802 102.012 277.741 102.316 274.289 108.157C272.277 111.7 271.227 115.707 271.244 119.781C266.487 119.687 261.803 118.59 257.5 116.56C253.196 114.531 249.37 111.616 246.271 108.005C247.54 105.924 249.418 102.878 251.651 99.224C261.295 83.743 262.716 82.524 264.645 82.017C272.462 80.134 284.035 91.555 282.563 98.357Z" fill="white" stroke="#7743FF" stroke-width="2" stroke-miterlimit="10"/>
<path d="M296.471 107.95C296.394 109.316 296.038 110.652 295.424 111.876C294.811 113.099 293.953 114.184 292.904 115.063C291.855 115.941 290.637 116.596 289.325 116.986C288.013 117.376 286.635 117.493 285.277 117.329C283.918 117.166 282.607 116.726 281.425 116.036C280.243 115.346 279.215 114.422 278.404 113.319C277.593 112.217 277.017 110.96 276.711 109.626C276.405 108.292 276.375 106.91 276.624 105.564C275.151 107.262 273.983 109.203 273.173 111.3C272.505 113.006 272.095 114.803 271.955 116.63C272.716 117.899 276.675 124.193 284.086 125.411C285.355 125.611 292.563 126.68 295.963 122.365C297.587 120.233 297.74 117.645 297.841 115.565C297.912 112.96 297.445 110.367 296.471 107.95Z" fill="#5C2BDE"/>
<path d="M317.79 55.719C320.125 60.033 319.566 64.399 318.45 72.926C317.128 82.571 315.404 90.641 313.328 95.971C313.179 96.3608 312.902 96.6885 312.542 96.9005C312.182 97.1124 311.761 97.1962 311.348 97.138C310.06 96.8301 308.803 96.4054 307.592 95.869C305.925 98.8387 303.76 101.5 301.192 103.736C296.624 107.617 291.006 110.054 285.051 110.736C278.733 108.407 273.35 104.075 269.722 98.402C267.602 94.9682 266.219 91.131 265.661 87.134C265.071 81.8667 266.023 76.5415 268.402 71.805C266.831 70.8796 265.52 69.5695 264.595 67.998C262.26 63.887 262.362 57.085 266.067 55.258C268.859 53.888 273.275 55.41 276.267 59.319C277.546 57.0744 279.116 55.0091 280.937 53.177C281.495 52.619 285.607 48.457 290.277 46.577C299.415 42.979 313.019 46.938 317.79 55.719Z" fill="white" stroke="#7743FF" stroke-width="2" stroke-miterlimit="10"/>
<path d="M266.775 92.215C268.969 97.197 271.638 101.956 274.744 106.427L273.526 106.275C273.826 105.92 274.135 105.514 274.389 105.158C274.447 105.459 274.481 105.765 274.489 106.072C273.208 104.986 272.111 103.701 271.24 102.265C271.697 102.011 272.103 101.757 272.56 101.504C273.146 102.904 274.26 104.018 275.66 104.604L274.746 105.822C272.109 103.329 269.713 100.593 267.589 97.65C267.031 96.838 268.35 96.076 268.909 96.889C270.947 99.7301 273.258 102.365 275.809 104.756C276.469 105.365 275.609 106.279 274.895 105.974C273.263 105.255 271.959 103.951 271.24 102.319C271.144 102.144 271.121 101.939 271.174 101.747C271.228 101.555 271.355 101.392 271.528 101.292C271.7 101.193 271.905 101.165 272.098 101.215C272.291 101.264 272.457 101.388 272.56 101.558C273.404 102.849 274.41 104.025 275.555 105.058C275.679 105.173 275.758 105.328 275.776 105.496C275.795 105.664 275.751 105.833 275.655 105.972C275.357 106.499 274.98 106.978 274.538 107.393C274.452 107.473 274.35 107.533 274.239 107.569C274.128 107.605 274.01 107.616 273.894 107.602C273.777 107.587 273.666 107.547 273.567 107.485C273.468 107.423 273.383 107.339 273.32 107.241C270.204 102.777 267.534 98.0165 265.351 93.029C265.051 92.115 266.366 91.354 266.772 92.217L266.775 92.215Z" fill="#161616"/>
<path d="M304.744 99.777C301.244 98.863 299.211 95.919 297.435 93.026C296.927 92.214 298.247 91.453 298.755 92.265C300.328 94.803 302.105 97.493 305.155 98.356C306.119 98.556 305.713 100.031 304.749 99.777H304.744Z" fill="#161616"/>
<path d="M299.872 91.961C299.395 91.9761 298.926 92.0925 298.497 92.3025C298.069 92.5125 297.689 92.8113 297.385 93.179C296.725 93.94 295.659 92.824 296.319 92.113C296.761 91.6005 297.305 91.1865 297.917 90.8979C298.53 90.6094 299.195 90.4527 299.872 90.438C300.887 90.387 300.887 91.91 299.872 91.961Z" fill="#161616"/>
<path d="M301.801 82.825V82.673C301.801 82.471 301.881 82.2774 302.024 82.1346C302.167 81.9917 302.361 81.9115 302.563 81.9115C302.764 81.9115 302.958 81.9917 303.101 82.1346C303.244 82.2774 303.324 82.471 303.324 82.673V82.825C303.319 83.0252 303.237 83.2159 303.096 83.3575C302.954 83.4991 302.763 83.581 302.563 83.586C302.366 83.5727 302.18 83.4882 302.04 83.3483C301.9 83.2084 301.815 83.0224 301.802 82.825H301.801Z" fill="#161616"/>
<path d="M298.402 78.764C298.205 78.7569 298.018 78.6735 297.881 78.5315C297.744 78.3895 297.668 78.1998 297.668 78.0025C297.668 77.8052 297.744 77.6156 297.881 77.4735C298.018 77.3315 298.205 77.2482 298.402 77.241C298.599 77.2482 298.786 77.3315 298.923 77.4735C299.06 77.6156 299.136 77.8052 299.136 78.0025C299.136 78.1998 299.06 78.3895 298.923 78.5315C298.786 78.6735 298.599 78.7569 298.402 78.764Z" fill="#161616"/>
<path d="M298.858 82.622C298.661 82.6149 298.474 82.5315 298.337 82.3895C298.2 82.2474 298.124 82.0578 298.124 81.8605C298.124 81.6632 298.2 81.4736 298.337 81.3315C298.474 81.1895 298.661 81.1061 298.858 81.099C299.055 81.1061 299.242 81.1895 299.379 81.3315C299.516 81.4736 299.592 81.6632 299.592 81.8605C299.592 82.0578 299.516 82.2474 299.379 82.3895C299.242 82.5315 299.055 82.6149 298.858 82.622Z" fill="#161616"/>
<path d="M318.145 70.541C321.062 69.6167 323.56 67.6937 325.2 65.11C328.3 59.831 325.809 53.689 324.591 50.796C323.931 49.172 322.104 45.162 313.272 37.296C306.572 31.256 303.172 28.261 299.364 26.586C285.764 20.647 271.853 26.332 269.315 27.398C265.559 28.921 262.815 30.798 257.387 34.453C250.787 38.92 246.576 41.813 243.276 46.787C239.266 52.878 241.703 54.451 238.251 61.304C232.769 72.166 225.206 70.846 220.689 80.897C219.928 82.572 215.715 91.911 220.489 100.084C224.397 106.733 232.366 109.119 238.254 108.967C248.964 108.667 255.765 99.627 259.623 94.45C264.589 87.7335 267.673 79.8133 268.556 71.507C263.632 68.563 261.956 63.284 263.683 59.934C264.952 57.548 268.454 55.163 271.551 56.482C272.654 57.0407 273.569 57.9108 274.183 58.9844C274.796 60.058 275.081 61.288 275.002 62.522C279.477 63.2978 284.081 62.7108 288.218 60.8372C292.355 58.9636 295.834 55.89 298.202 52.015C302.615 53.7234 306.663 56.2554 310.13 59.476C313.479 62.6227 316.199 66.3778 318.145 70.541Z" fill="#5C2BDE"/>
<path opacity="0.24" d="M285.051 73.485C281.13 77.1928 277.989 81.6467 275.813 86.585C273.192 92.6913 272.161 99.3624 272.818 105.975C270.991 102.875 269.218 99.782 267.387 96.636C264.443 103.236 261.55 109.836 258.606 116.381C255.763 115.743 253.128 114.399 250.942 112.473C249.191 110.925 247.79 109.022 246.831 106.89C254.581 101.381 260.645 93.8237 264.343 85.064C266.118 80.7997 267.28 76.3053 267.794 71.715C263.429 68.615 261.805 63.644 263.429 60.091C264.444 57.807 267.388 54.914 270.687 55.827C272.134 56.2995 273.362 57.2785 274.146 58.5839C274.929 59.8894 275.215 61.4336 274.951 62.933C279.391 63.4962 283.901 62.8165 287.978 60.9694C292.055 59.1224 295.54 56.1805 298.045 52.471C296.675 61.455 293.223 66.328 290.33 69.12C288.502 70.998 287.741 70.998 285.051 73.485Z" fill="#7743FF"/>
<path opacity="0.24" d="M267.792 75.922C268.147 75.922 267.944 81.15 268.452 85.972C268.993 90.9636 270.348 95.8331 272.462 100.387C270.06 98.8448 268.055 96.7589 266.609 94.2981C265.163 91.8373 264.317 89.0707 264.138 86.222C264.757 85.268 265.3 84.2666 265.762 83.227C267.538 79.171 267.488 75.922 267.792 75.922Z" fill="#7743FF"/>
<path opacity="0.19" d="M266.017 93.535C264.388 95.2273 262.659 96.8205 260.84 98.306C254.089 103.94 247.54 107.138 247.34 106.783C247.14 106.428 253.533 103.839 258.405 96.834C261.451 92.469 263.227 87.291 263.988 87.545C264.343 87.645 264.039 88.865 264.648 90.845C264.988 91.7963 265.448 92.7003 266.017 93.535Z" fill="#7743FF"/>
<path opacity="0.74" d="M260.382 32.574C255.496 41.0075 251.107 49.719 247.236 58.664C239.165 77.495 239.825 82.673 240.942 86.023C243.429 93.586 250.332 97.85 254.442 99.88C251.351 104.266 246.736 107.342 241.499 108.509C240.027 108.809 231.144 110.489 224.394 104.347C221 101.185 218.886 96.8858 218.455 92.267C217.541 83.74 222.617 77.344 224.241 75.517C226.373 73.131 226.83 73.69 231.804 68.868C235.662 65.163 237.54 63.285 238.656 60.95C240.433 57.143 239.265 55.519 241.346 50.697C242.251 48.643 243.392 46.7013 244.746 44.911C249.672 38.259 256.779 34.351 260.382 32.574Z" fill="#5C2BDE"/>
<path d="M306.014 76.328C305.506 77.343 305.506 78.815 306.166 79.12C306.826 79.475 308.095 78.511 308.552 77.394C308.907 76.43 308.806 75.059 308.146 74.805C307.435 74.547 306.42 75.465 306.014 76.328Z" fill="#161616"/>
<path d="M310.175 75.161C308.39 74.5499 306.556 74.0916 304.693 73.791C303.982 73.691 304.287 72.573 304.993 72.674C306.856 72.9749 308.69 73.4336 310.475 74.045C310.616 74.0906 310.735 74.1888 310.806 74.3194C310.877 74.4499 310.895 74.6028 310.857 74.7463C310.818 74.8898 310.726 75.013 310.599 75.0904C310.472 75.1678 310.32 75.1934 310.175 75.162V75.161Z" fill="#161616"/>
</svg>
