<svg width="17" height="22" viewBox="0 0 17 22" fill="none" xmlns="http://www.w3.org/2000/svg">
<path d="M0.0244141 11.3248L1.41012 10.7178L2.37759 12.1908H0.0244141V11.3248Z" fill="url(#paint0_linear_3870_2932)"/>
<path d="M16.6529 22H1.75683C1.66489 22 1.57671 21.9638 1.5117 21.8992C1.44668 21.8347 1.41016 21.7472 1.41016 21.656V0.344C1.41016 0.252766 1.44668 0.165268 1.5117 0.100755C1.57671 0.0362428 1.66489 0 1.75683 0L13.2154 0L16.9996 3.755V21.655C16.9997 21.7003 16.9909 21.7451 16.9735 21.787C16.9561 21.8288 16.9306 21.8668 16.8984 21.8989C16.8662 21.9309 16.8279 21.9564 16.7858 21.9737C16.7437 21.9911 16.6985 22 16.6529 22Z" fill="url(#paint1_linear_3870_2932)"/>
<path d="M13.2148 0V3.411C13.2148 3.50223 13.2514 3.58973 13.3164 3.65424C13.3814 3.71876 13.4696 3.755 13.5615 3.755H16.9991L15.302 1.727L13.2148 0Z" fill="url(#paint2_linear_3870_2932)"/>
<path d="M13.5429 18.0471H0.637148C0.556682 18.0471 0.477005 18.0314 0.402665 18.0008C0.328325 17.9703 0.260777 17.9255 0.20388 17.869C0.146982 17.8126 0.101849 17.7455 0.0710557 17.6718C0.040263 17.598 0.0244141 17.5189 0.0244141 17.4391V11.9331H13.5429C13.7053 11.9334 13.861 11.9975 13.9758 12.1115C14.0907 12.2254 14.1553 12.3799 14.1556 12.5411V17.4411C14.1551 17.602 14.0903 17.7561 13.9754 17.8697C13.8606 17.9833 13.705 18.0471 13.5429 18.0471Z" fill="url(#paint3_linear_3870_2932)"/>
<path d="M1.41055 10.7178H0.637578C0.555089 10.7145 0.472774 10.7277 0.395576 10.7567C0.318378 10.7858 0.247889 10.83 0.18834 10.8867C0.128792 10.9435 0.0814132 11.0116 0.0490483 11.0869C0.0166834 11.1623 0 11.2434 0 11.3253C0 11.4072 0.0166834 11.4883 0.0490483 11.5636C0.0814132 11.639 0.128792 11.7071 0.18834 11.7638C0.247889 11.8206 0.318378 11.8648 0.395576 11.8938C0.472774 11.9229 0.555089 11.9361 0.637578 11.9328H1.41055V10.7178Z" fill="url(#paint4_linear_3870_2932)"/>
<path d="M2.79599 16.168V13.815C2.79599 13.7756 2.80381 13.7366 2.81901 13.7002C2.8342 13.6638 2.85647 13.6308 2.88454 13.6029C2.91262 13.575 2.94595 13.5529 2.98263 13.5379C3.01931 13.5228 3.05863 13.515 3.09833 13.515C3.55801 13.4974 4.01838 13.5121 4.47597 13.559C4.66183 13.6116 4.82362 13.7263 4.93385 13.8838C5.04409 14.0413 5.09595 14.2319 5.08064 14.423C5.09427 14.6252 5.03492 14.8256 4.91323 14.9883C4.79155 15.151 4.61546 15.2654 4.41651 15.311C4.11191 15.3471 3.80507 15.3612 3.49842 15.353C3.47169 15.353 3.44606 15.3636 3.42716 15.3823C3.40826 15.4011 3.39764 15.4265 3.39764 15.453V16.173C3.39764 16.2526 3.36579 16.3289 3.30909 16.3852C3.25239 16.4414 3.17549 16.473 3.0953 16.473C3.01512 16.473 2.93822 16.4414 2.88152 16.3852C2.82482 16.3289 2.79297 16.2526 2.79297 16.173L2.79599 16.168ZM3.40066 14.109V14.755C3.40066 14.7815 3.41128 14.807 3.43018 14.8257C3.44908 14.8445 3.47471 14.855 3.50144 14.855C3.73761 14.8712 3.97489 14.8557 4.20689 14.809C4.29092 14.7783 4.36223 14.7206 4.40957 14.6452C4.45692 14.5698 4.4776 14.4808 4.46836 14.3925C4.45912 14.3041 4.42048 14.2212 4.35853 14.1571C4.29659 14.0929 4.21487 14.051 4.12627 14.038C3.91816 14.0203 3.70926 14.0137 3.50044 14.018C3.47371 14.018 3.44807 14.0286 3.42917 14.0473C3.41027 14.0661 3.39966 14.0915 3.39966 14.118L3.40066 14.109Z" fill="white"/>
<path d="M5.56738 13.812C5.56738 13.7324 5.59924 13.6561 5.65593 13.5999C5.71263 13.5436 5.78953 13.512 5.86972 13.512C6.32497 13.4849 6.78181 13.5037 7.23325 13.568C7.40785 13.6241 7.56593 13.7218 7.69366 13.8525C7.82139 13.9833 7.91487 14.1431 7.96591 14.318C8.03762 14.5444 8.07166 14.7808 8.06669 15.018C8.07112 15.2309 8.04014 15.4431 7.97498 15.646C7.92718 15.8245 7.83395 15.9877 7.70423 16.1201C7.57452 16.2525 7.41268 16.3496 7.23426 16.402C6.78343 16.4655 6.32757 16.4866 5.87274 16.465C5.83304 16.465 5.79372 16.4572 5.75704 16.4422C5.72036 16.4271 5.68703 16.405 5.65896 16.3771C5.63088 16.3493 5.60861 16.3162 5.59342 16.2798C5.57823 16.2434 5.57041 16.2044 5.57041 16.165L5.56738 13.812ZM6.17205 14.112V15.876C6.17205 15.8891 6.17466 15.9021 6.17973 15.9143C6.18479 15.9264 6.19221 15.9374 6.20157 15.9467C6.21093 15.956 6.22204 15.9634 6.23427 15.9684C6.24649 15.9734 6.2596 15.976 6.27283 15.976C6.5117 15.9891 6.75128 15.9798 6.98836 15.948C7.08892 15.9277 7.18106 15.878 7.25291 15.8053C7.32475 15.7326 7.37301 15.6402 7.39147 15.54C7.43731 15.3634 7.45767 15.1813 7.45194 14.999C7.45857 14.8217 7.43818 14.6443 7.39147 14.473C7.36516 14.3669 7.30875 14.2704 7.22891 14.1951C7.14907 14.1198 7.04916 14.0687 6.941 14.048C6.71983 14.0239 6.49728 14.0146 6.27485 14.02C6.249 14.0213 6.22465 14.0324 6.20682 14.051C6.189 14.0696 6.17908 14.0943 6.17911 14.12L6.17205 14.112Z" fill="white"/>
<path d="M8.57538 16.1677V13.8117C8.57538 13.7322 8.60724 13.6558 8.66394 13.5996C8.72063 13.5433 8.79753 13.5117 8.87772 13.5117H10.3652C10.432 13.5117 10.4961 13.5381 10.5434 13.5849C10.5906 13.6318 10.6172 13.6954 10.6172 13.7617C10.6172 13.828 10.5906 13.8916 10.5434 13.9385C10.4961 13.9854 10.432 14.0117 10.3652 14.0117H9.27478C9.24806 14.0117 9.22242 14.0223 9.20353 14.041C9.18463 14.0598 9.17401 14.0852 9.17401 14.1117V14.6187C9.17401 14.6452 9.18463 14.6707 9.20353 14.6894C9.22242 14.7082 9.24806 14.7187 9.27478 14.7187H10.1687C10.2355 14.7187 10.2996 14.7451 10.3468 14.7919C10.3941 14.8388 10.4206 14.9024 10.4206 14.9687C10.4206 15.035 10.3941 15.0986 10.3468 15.1455C10.2996 15.1924 10.2355 15.2187 10.1687 15.2187H9.27478C9.24806 15.2187 9.22242 15.2293 9.20353 15.248C9.18463 15.2668 9.17401 15.2922 9.17401 15.3187V16.1777C9.17401 16.2573 9.14216 16.3336 9.08546 16.3899C9.02876 16.4461 8.95186 16.4777 8.87167 16.4777C8.79149 16.4777 8.71459 16.4461 8.65789 16.3899C8.60119 16.3336 8.56934 16.2573 8.56934 16.1777L8.57538 16.1677Z" fill="white"/>
<defs>
<linearGradient id="paint0_linear_3870_2932" x1="1.201" y1="10.4674" x2="1.201" y2="41.147" gradientUnits="userSpaceOnUse">
<stop stop-color="#FF5252"/>
<stop offset="1" stop-color="#D50000"/>
</linearGradient>
<linearGradient id="paint1_linear_3870_2932" x1="1.41016" y1="-1.87" x2="28.7012" y2="46.3028" gradientUnits="userSpaceOnUse">
<stop stop-color="#F3F7FF"/>
<stop offset="0.99" stop-color="#B5D1FF"/>
</linearGradient>
<linearGradient id="paint2_linear_3870_2932" x1="13.2148" y1="-8.05448" x2="16.9547" y2="-1.34955" gradientUnits="userSpaceOnUse">
<stop stop-color="#F3F7FF"/>
<stop offset="0.99" stop-color="#B5D1FF"/>
</linearGradient>
<linearGradient id="paint3_linear_3870_2932" x1="0.0244138" y1="11.1811" x2="2.91188" y2="30.8553" gradientUnits="userSpaceOnUse">
<stop stop-color="#FF5252"/>
<stop offset="1" stop-color="#D50000"/>
</linearGradient>
<linearGradient id="paint4_linear_3870_2932" x1="1.09598e-07" y1="5.60644" x2="1.05273" y2="15.0509" gradientUnits="userSpaceOnUse">
<stop stop-color="#FF5252"/>
<stop offset="1" stop-color="#D50000"/>
</linearGradient>
</defs>
</svg>
