<svg width="92" height="43" viewBox="0 0 92 43" fill="none" xmlns="http://www.w3.org/2000/svg">
<path d="M0.677735 31.7768H91.3223V0.67467H0.677735V31.7768ZM92 32.4546H0V0H92V32.4546Z" fill="#875CF8"/>
<path d="M29.8049 10.9604H25.165V27.2842H30.1484V15.4561C31.783 14.9604 33.4819 14.7093 35.19 14.7109V10.531C33.2344 10.4158 31.3084 11.0508 29.8049 12.3066V10.9604Z" fill="#875CF8"/>
<path d="M18.5779 12.9659C18.5779 15.4008 17.1181 15.9743 14.1404 15.9743H12.1072V9.7888C12.7205 9.7888 13.4535 9.7612 14.1404 9.7612C17.0905 9.7612 18.5503 10.2181 18.5779 12.6837V12.9659ZM13.7663 5.75C11.3313 5.75 9.29815 5.83587 6.95215 6.0076V27.2841H12.1072V19.9977C12.9383 20.0253 13.5669 20.0253 14.2845 20.0253C19.2955 20.0253 23.7636 18.9367 23.7636 12.972V12.6868C23.7636 6.8172 19.2955 5.75613 13.7693 5.75613" fill="#875CF8"/>
<path d="M41.2897 10.9602H36.3063V27.2841H41.2897V10.9602Z" fill="#875CF8"/>
<path d="M62.508 10.531C60.6499 10.5897 58.853 11.2086 57.3529 12.3066C56.9306 11.6871 56.3474 11.1945 55.666 10.8816C54.9847 10.5688 54.231 10.4476 53.4859 10.531C51.6997 10.5442 49.968 11.148 48.5608 12.2483V10.9603H43.8657V27.2842H48.8491V15.085C49.713 14.6076 50.6705 14.3239 51.6551 14.2539C53.1884 14.2539 53.2589 15.1126 53.2589 16.6582V27.2842H58.2423V16.6582C58.2566 16.1221 58.2278 15.5858 58.1564 15.0543C59.0044 14.583 59.9478 14.3094 60.9164 14.2539C62.6061 14.2539 62.6337 15.1126 62.6337 16.6582V27.2842H67.617V16.5509C67.617 13.3707 67.0037 10.5371 62.5203 10.5371" fill="#875CF8"/>
<path d="M41.4029 4.97705H36.2203V8.72758H41.4029V4.97705Z" fill="#875CF8"/>
<path d="M74.336 17.5043C74.336 15.7287 74.7653 14.0665 77.2278 14.0665C79.7762 14.0665 80.1504 15.698 80.1504 17.5043V17.7343H74.3237L74.336 17.5043ZM85.0478 20.4544V19.1081C85.0478 14.41 83.3857 10.5215 77.2585 10.5215C72.1034 10.5215 69.3833 13.0423 69.3833 18.7402V19.6509C69.3833 25.6371 71.9041 27.7255 77.8872 27.7255C80.027 27.7366 82.1608 27.4957 84.2444 27.0079V23.7143C81.4844 23.9136 79.7762 24.021 78.111 24.021C74.5874 24.021 74.3022 22.8464 74.3022 20.6998V20.4697L85.0478 20.4544Z" fill="#875CF8"/>
<path d="M24.0428 37.1188L24.0244 42.2034H23.0584L20.5345 39.106V42.1942H19.3723L19.3907 37.1096H20.3628L22.8774 40.207V37.1188H24.0428Z" fill="#875CF8"/>
<path d="M29.8999 41.2837V42.2282H25.9623L25.9807 37.1437H29.8233V38.0882H27.1491V39.1922H29.5105V40.1122H27.1491V41.2898L29.8999 41.2837Z" fill="#875CF8"/>
<path d="M34.543 40.2589L33.7456 38.3085L32.933 40.2528L34.543 40.2589ZM34.911 41.1544H32.5496L32.0958 42.2431H30.8906L33.1752 37.1677H34.3375L36.5915 42.2615H35.3464L34.911 41.1544Z" fill="#875CF8"/>
<path d="M40.8052 38.3701C40.5721 38.1999 40.2865 38.1174 39.9986 38.137H39.0388V39.9095H39.9986C40.2861 39.93 40.5717 39.8486 40.8052 39.6795C40.8984 39.5992 40.9721 39.4985 41.0205 39.3853C41.0688 39.2721 41.0907 39.1493 41.0842 39.0263C41.0926 38.9028 41.0723 38.7791 41.025 38.6647C40.9776 38.5503 40.9045 38.4485 40.8113 38.367M41.0934 42.2647L40.1182 40.8449H39.0357V42.2617H37.8581L37.8765 37.1771H40.0784C40.4808 37.1696 40.8802 37.248 41.2498 37.4071C41.5614 37.5418 41.8268 37.7646 42.0134 38.0481C42.1959 38.3421 42.2876 38.6835 42.2772 39.0294C42.285 39.3748 42.1888 39.7145 42.0012 40.0046C41.8079 40.2803 41.5382 40.4935 41.2253 40.6179L42.36 42.2555L41.0934 42.2647Z" fill="#875CF8"/>
<path d="M44.4177 42.2034C44.0934 42.1169 43.7877 41.9714 43.5161 41.7741L43.9178 40.8909C44.1541 41.0604 44.4161 41.1909 44.6937 41.2773C44.9846 41.3734 45.2889 41.4231 45.5953 41.4245C45.8552 41.4457 46.116 41.3959 46.3497 41.2804C46.4193 41.2405 46.477 41.1829 46.5169 41.1134C46.5568 41.0438 46.5774 40.9649 46.5766 40.8848C46.5786 40.8262 46.5668 40.768 46.5423 40.7148C46.5178 40.6615 46.4813 40.6147 46.4356 40.5781C46.3282 40.4922 46.2054 40.4276 46.0737 40.388C45.9265 40.3389 45.7221 40.2847 45.4604 40.2254C45.1382 40.1516 44.8207 40.0584 44.5097 39.9464C44.2713 39.8518 44.0604 39.6989 43.8964 39.5017C43.7118 39.2713 43.6189 38.9807 43.6357 38.686C43.6341 38.4009 43.7185 38.1219 43.878 37.8856C44.0591 37.6302 44.3105 37.4331 44.6017 37.3182C44.9761 37.1702 45.3769 37.1003 45.7793 37.1128C46.0999 37.1136 46.4192 37.1538 46.73 37.2324C47.0169 37.3015 47.2911 37.4153 47.5426 37.5697L47.1746 38.4621C46.749 38.2063 46.2636 38.0667 45.767 38.0573C45.5138 38.0384 45.2605 38.0927 45.0372 38.2137C44.9624 38.2579 44.9008 38.3213 44.8587 38.3973C44.8167 38.4734 44.7957 38.5592 44.798 38.6461C44.7973 38.7309 44.8228 38.8139 44.8711 38.8836C44.9194 38.9534 44.9882 39.0064 45.0678 39.0356C45.3355 39.1485 45.6139 39.2338 45.8989 39.2901C46.2211 39.364 46.5385 39.4572 46.8496 39.5692C47.093 39.657 47.311 39.8034 47.4844 39.9954C47.6681 40.2193 47.7621 40.5035 47.7481 40.7928C47.7495 41.0764 47.6639 41.3536 47.5028 41.587C47.3183 41.8429 47.0638 42.0399 46.7698 42.1544C46.393 42.3061 45.9891 42.3792 45.583 42.369C45.1887 42.3694 44.7963 42.3136 44.4177 42.2034Z" fill="#875CF8"/>
<path d="M53.955 37.2325L53.9366 42.3171H52.759V40.2317H50.4498V42.3171H49.2722L49.2906 37.2325H50.4682V39.2381H52.7774V37.2325H53.955Z" fill="#875CF8"/>
<path d="M59.1469 41.2126C59.3879 41.0774 59.5864 40.8778 59.7203 40.636C59.8624 40.379 59.9354 40.0895 59.9319 39.7958C59.9386 39.5019 59.8688 39.2113 59.7295 38.9524C59.5979 38.7103 59.4015 38.5096 59.1622 38.3728C58.9147 38.2319 58.6343 38.1589 58.3495 38.1612C58.0653 38.1569 57.7849 38.2278 57.5369 38.3667C57.2959 38.5019 57.0973 38.7015 56.9634 38.9432C56.8209 39.2012 56.748 39.4919 56.7518 39.7866C56.745 40.0805 56.8148 40.3711 56.9542 40.6299C57.086 40.8719 57.2824 41.0726 57.5215 41.2095C57.769 41.3506 58.0494 41.4236 58.3342 41.4211C58.6185 41.4254 58.8988 41.3546 59.1469 41.2156M56.9021 42.0743C56.4915 41.8563 56.1488 41.5296 55.9115 41.1298C55.6708 40.7214 55.5477 40.2544 55.5558 39.7804C55.551 39.3066 55.6773 38.8407 55.9207 38.4342C56.1614 38.0354 56.5073 37.7107 56.9205 37.4958C57.3611 37.2654 57.8524 37.1494 58.3495 37.1584C58.8455 37.1524 59.3349 37.2716 59.7725 37.505C60.182 37.7244 60.5244 38.0508 60.763 38.4495C61.0059 38.8571 61.1301 39.3244 61.1218 39.7988C61.1268 40.2731 60.9994 40.7393 60.7538 41.1451C60.5114 41.5417 60.1658 41.8649 59.7541 42.0804C59.3147 42.3112 58.8242 42.4272 58.3281 42.4178C57.8312 42.4234 57.3409 42.3043 56.9021 42.0712" fill="#875CF8"/>
<path d="M65.6819 38.465C65.4489 38.2949 65.1633 38.2124 64.8754 38.232H63.9155V40.0045H64.8754C65.1629 40.025 65.4485 39.9436 65.6819 39.7745C65.7752 39.6942 65.8489 39.5935 65.8972 39.4803C65.9456 39.3671 65.9674 39.2443 65.961 39.1213C65.9694 38.9978 65.9491 38.8741 65.9017 38.7597C65.8544 38.6453 65.7813 38.5434 65.6881 38.462M65.9702 42.3597L64.995 40.9398H63.9125V42.3566H62.7349L62.7533 37.2721H64.9551C65.3575 37.2645 65.7569 37.3429 66.1266 37.5021C66.438 37.637 66.7034 37.8597 66.8902 38.143C67.0727 38.4371 67.1644 38.7785 67.1539 39.1244C67.1617 39.4698 67.0656 39.8095 66.8779 40.0996C66.6848 40.3754 66.4151 40.5887 66.1021 40.7129L67.2367 42.3505L65.9702 42.3597Z" fill="#875CF8"/>
<path d="M72.7291 41.4429V42.3874H68.7915L68.8099 37.3029H72.6524V38.2474H69.9783V39.3514H72.3396V40.2714H69.9783V41.449L72.7291 41.4429Z" fill="#875CF8"/>
</svg>
